<?xml version="1.0" encoding="UTF-8"?>
<svg id="Layer_1" data-name="Layer 1" xmlns="http://www.w3.org/2000/svg" version="1.1" viewBox="0 0 900 431.3">
  <defs>
    <style>
      .cls-1 {
        fill: #ee3426;
        fill-rule: evenodd;
        stroke-width: 0px;
      }
    </style>
  </defs>
  <path class="cls-1" d="M504.8,311.9c.1-.4,0-.8-.1-1.2-.1-.4-.4-.7-.9-.9-.6-.3-1.2-.5-1.9-.5-1-.1-2-.1-3-.1-2.4,0-4.1.2-5.3.6-1.1.4-1.8,1.1-2.1,2.1l-1.7,8.4c-2.8-3.7-6.2-6.8-10.2-9.2-3.8-2.2-8.3-3.3-13.6-3.3s-9.9,1-14.1,3.1c-4.1,2-7.8,4.7-11,8.1s-5.9,7.3-8.1,11.5-4.1,8.7-5.5,13.2c-1.4,4.4-2.4,8.9-3.1,13.5-.7,4.5-1,8.5-1,12.1s.4,8.2,1.3,11.9c.8,3.7,2.2,6.8,4.1,9.5s4.4,4.8,7.5,6.3,6.9,2.3,11.4,2.3,6.7-.6,10-1.8c3.3-1.2,6.3-2.8,9-4.7s5.2-4.1,7.2-6.4c1.9-2,3.4-4.4,4.6-6.9-.7,2-1.5,4.9-2.5,8.6s-2,8.4-3,14c-.6,2.9-1.5,5.4-2.7,7.5s-2.8,3.8-4.7,5.2c-2.1,1.4-4.4,2.4-6.8,3-2.6.7-5.5,1-8.7,1s-7.1-.3-9.8-1c-3.9-.9-7.5-2.4-11-4.4-.8-.6-1.7-.9-2.7-1-.6,0-1.1.2-1.5.5-.5.4-.9.8-1.2,1.4-.4.6-.6,1.3-.8,2-.2.7-.4,1.4-.5,2.1s-.2,1.4-.3,2c0,.5,0,1-.1,1.6,0,.9.2,1.7.5,2.3.5.7,1.1,1.3,1.8,1.8,2.4,1.4,5.7,2.6,9.8,3.6,4.1,1,8.6,1.5,13.6,1.5,5.2.1,10.3-.6,15.3-1.8,4.2-1.1,8.2-3,11.7-5.5,3.3-2.4,6-5.5,8.1-9.2s3.7-8,4.6-12.9c0,0,17.4-89.9,17.4-89.9ZM543.4,380.2c3.6-5.3,7-10.7,10-16.4,3-5.5,5.7-11.2,8.2-16.9,2.5-5.7,4.8-11.5,6.9-17.3,2.1-5.8,4.1-11.7,6-17.7,0-.5.3-.9.7-1.3s.9-.7,1.5-.9c.8-.3,1.7-.5,2.5-.5,1.1-.1,2.4-.1,4-.1,2.7,0,4.5.2,5.4.6s1.3.9,1.3,1.7,0,1.4-.2,2.1c0,.7-.3,1.4-.6,2-2.1,5.9-4.2,11.7-6.5,17.5-5.3,13.7-11.7,27.1-19,39.8-4.5,7.8-9.5,15.4-14.8,22.8l-23.2,32.6c-.4.5-.8,1-1.3,1.3-.6.4-1.3.7-2,1-.9.3-1.9.5-2.8.6-1.3.1-2.6.2-3.9.2s-2.9-.1-4-.2c-.8-.1-1.6-.4-2.4-.8-.5-.3-.8-.9-.7-1.5.2-.8.5-1.6,1.1-2.2l21.8-29-13.3-81.3c0-.7-.2-1.4-.3-2,0-.5,0-1,0-1.6s0-1.3.3-1.7c.3-.5.7-.9,1.2-1.1.8-.3,1.6-.5,2.4-.6,1-.1,2.2-.1,3.6-.1s2.9.1,3.8.1c.7.1,1.5.2,2.2.5.5.2.9.5,1.1,1,.2.5.4,1,.4,1.6l10.5,67.9c0-.1.2-.1.2-.1ZM296.3,356.7c-.4,1.9-.7,3.9-.9,5.9-.1,1.8-.2,3.6-.2,5.4,0,6.2,1.5,10.9,4.4,14.1,2.9,3.3,7.7,4.9,14.4,4.9s7.2-.3,10.3-.9c3-.6,5.7-1.2,7.9-1.9,2.2-.7,4.1-1.3,5.5-1.9.9-.4,1.9-.7,2.9-.9.5,0,.9.2,1.2.6.3.4.4,1,.4,1.7s-.1,1.3-.2,2.2c-.2,1.8-.7,3.6-1.5,5.2-.3.7-.8,1.4-1.3,2-.7.7-2,1.5-3.8,2.2-2.1.8-4.3,1.4-6.5,2-2.7.6-5.5,1.1-8.2,1.4-3,.4-6,.6-8.9.6-5.3,0-10-.6-14-1.8-3.7-1.1-7.1-3-10-5.7-2.7-2.7-4.8-5.9-6-9.6-1.3-3.8-2-8.3-2-13.5.1-9,1.6-18,4.6-26.5,1.6-4.5,3.7-8.8,6.3-13,2.6-4.1,5.6-7.8,9.2-10.9,3.6-3.2,7.8-5.7,12.3-7.6,5-2,10.4-3,15.7-2.9,5,0,9.3.7,12.8,2s6.3,2.9,8.6,5c2.2,2,3.9,4.3,4.9,6.8s1.5,5,1.5,7.4c0,4.3-1,8.1-2.9,11.5s-4.9,6.3-8.9,8.7c-4.1,2.4-9.2,4.2-15.6,5.5-6.3,1.3-13.9,2-22.7,2,.1,0-9.3,0-9.3,0ZM121.9,356.7c-.4,2-.7,3.9-.9,5.9,0,1.8-.2,3.6-.2,5.4,0,6.2,1.5,10.9,4.4,14.1,3,3.3,7.7,4.9,14.4,4.9s7.2-.3,10.3-.9c3-.6,5.7-1.2,7.9-1.9,2.2-.7,4.1-1.3,5.5-1.9.9-.4,1.9-.7,2.9-.9.5,0,.9.2,1.2.6s.4,1,.4,1.7c-.1,1.6-.3,3.3-.7,4.9-.2.9-.5,1.7-.9,2.5-.3.7-.8,1.4-1.3,2-.7.7-2,1.5-3.8,2.2-2.1.8-4.3,1.4-6.5,2-2.5.6-5.2,1.1-8.2,1.4-3,.4-6,.6-8.9.6-5.3,0-10-.6-14-1.8-3.7-1.1-7.1-3-10-5.7-2.7-2.7-4.8-5.9-6-9.6-1.3-3.8-2-8.3-2-13.5,0-9,1.6-18,4.6-26.5,1.6-4.5,3.7-8.8,6.3-13,2.6-4.1,5.6-7.8,9.2-10.9,3.7-3.2,7.8-5.7,12.3-7.6,5-2,10.4-3,15.8-2.9,5,0,9.2.7,12.7,2s6.3,2.9,8.6,5c2.2,2,3.9,4.3,4.9,6.8s1.5,5,1.5,7.4c0,4.3-1,8.1-2.9,11.5s-4.9,6.3-8.9,8.7c-4.1,2.4-9.2,4.2-15.6,5.5-6.3,1.3-13.9,2-22.7,2,0,0-9.4,0-9.4,0ZM265.9,321.9c-.7-2.6-1.9-5.1-3.6-7.2-1.8-2.1-4-3.8-6.5-5-2.7-1.3-6-1.9-10-1.9s-7.1.7-10.5,1.9c-3.4,1.3-6.5,2.9-9.2,4.9-2.7,1.9-5.1,4-7.2,6.5-2,2.3-3.5,4.6-4.4,6.7l3-15.9c.1-.4,0-.8-.1-1.2-.1-.4-.5-.7-.8-.9-.6-.3-1.2-.5-1.9-.5-2.1-.2-4.1-.2-6.2,0-.7.1-1.5.2-2.2.5-.5.2-.9.5-1.2.9s-.4.8-.5,1.2l-16.2,83.3c-.1.4-.1.8,0,1.2.1.3.5.6,1,.9.7.3,1.4.5,2.2.5.9.1,2.1.2,3.6.2s2.6,0,3.6-.2c.8-.1,1.6-.3,2.4-.5.5-.2,1-.5,1.4-.9.3-.4.5-.8.6-1.2l7.2-37.2c1-5.3,2.6-10.2,4.9-14.8,2.2-4.5,4.8-8.4,7.6-11.7,2.8-3.3,5.9-5.9,9.2-7.8s6.5-2.8,9.7-2.8,6.2,1.2,7.8,3.5,2.3,5.3,2.3,9.1-.1,2.9-.2,4.7c-.2,1.9-.4,3.7-.8,5.5l-9.9,51.4c-.1.4,0,.8.1,1.2.1.3.5.6,1,.9.7.3,1.4.5,2.2.5.9.1,2.1.2,3.5.2s2.7,0,3.7-.2c.8-.1,1.6-.3,2.4-.5.5-.2,1-.5,1.3-.9s.5-.8.6-1.2l10.1-52c.4-2.2.7-4.4,1-6.5.2-2.1.4-4.2.4-6.4-.3-2.7-.7-5.6-1.4-8.3ZM423.8,310.3c-.4-.4-1-.8-1.6-1-.8-.3-1.6-.5-2.4-.7-1-.2-1.9-.4-2.9-.6-3.5-.6-7-.1-10.2,1.3-2.5,1.1-4.8,2.5-6.9,4.2-2.3,1.8-4.3,3.9-6.1,6.2-1.9,2.3-3.5,4.8-4.9,7.3l2.9-15.1c.1-.4,0-.8-.1-1.2-.2-.4-.5-.7-.9-.9-.6-.3-1.2-.5-1.9-.5-2.1-.2-4.1-.2-6.2,0-.8.1-1.5.2-2.2.5-.5.2-1,.5-1.3.9-.3.3-.5.8-.5,1.2l-16,83.3c-.1.4-.1.8,0,1.2.1.3.5.6,1,.9.7.3,1.4.5,2.1.6.9.1,2.1.2,3.6.2s2.6,0,3.6-.2c.8-.1,1.6-.3,2.4-.6.5-.2,1-.5,1.3-.9s.5-.8.6-1.2l7.1-37.1c1.8-9.3,5.9-18.1,11.7-25.6,2.2-2.9,4.9-5.4,7.8-7.5,2.6-1.8,5-2.7,7-2.7s3.8.3,5.5,1.1c.7.3,1.3.6,1.9.8.5.2,1,.3,1.6.3s.9-.3,1.3-.8.8-1.2,1.1-2.1c.4-.8.7-1.8.9-2.7.2-1,.4-1.9.5-2.9l.3-2.4c.1-.5.1-1,.1-1.4.4-.9.2-1.5-.2-1.9ZM482.9,349c-1,5.1-2.6,10.1-4.9,14.8-2.2,4.5-4.7,8.5-7.6,11.8-2.6,3.1-5.7,5.8-9.3,7.8-3.3,1.9-6.6,2.8-9.9,2.8s-4.2-.5-5.8-1.4c-1.6-.9-2.9-2.2-3.9-3.7-1.1-1.8-1.8-3.7-2.1-5.7-.5-2.4-.7-4.8-.7-7.3.1-6.6,1-13.2,2.7-19.7.9-3.5,2.1-6.9,3.6-10.2,1.5-3.3,3.3-6.3,5.2-8.8,2-2.6,4.3-4.6,6.9-6.2,2.6-1.5,5.4-2.3,8.7-2.3s7.7,1.1,11,3.2,6.3,5.3,9.1,9.6c0,0-3,15.3-3,15.3ZM569,207.8c-2.7,0-2.3-4.1.4-4.1,7.7-.1,15.4-.3,23.1-.6,3.2-2.8,6.4-5.5,9.7-8.2-1.8-1.8-3.6-3.6-5.3-5.5-13.5-5.6-27.2-10.8-41-15.7-20.6-3.8-41.1-8.2-61.5-13.3-2.3-.6-1.4-4.3.9-4,20.6,2.6,40.5,7.2,59.9,13,18.4,3.4,36.9,6.4,55.4,9.2,5-.8,10-1.5,15.1-1.9,2.8-2,5.6-4,8.4-6,2.6-6.8,5.2-13.5,7.9-20.2-21.6-30.8-38.6-63.4-46-100.7-.5-2.4,2.8-3.2,3.9-1.2,17.1,29.7,32.8,61,45.5,93.4,6.1-15.3,12.4-30.6,18.3-45.9.7-1.9,3.6-1.7,4,.4.7,3.7,1.3,7.3,1.8,11,.2-15.7.5-31.5.5-47.2s3.8-2.5,4.1-.2c3.3,24.1,6.2,48.3,8.7,72.5l2.5-2.1c6.9-41,15.9-81.6,23.3-121.1.4-2.2,3.9-2.7,4.1-.2,2.4,31.9,4.2,65.3,4.9,98.7.9-.5,1.9-1,2.8-1.4.9-18.7,2-37.4,3.8-55.9.3-16.2.4-32.3.5-48.5,0-2.7,4.1-2.3,4.1.4,0,14.2,0,28.5-.2,42.7,0,.3.2.6.2.9.5,18.8.5,37.8.2,56.7,1.1-.4,2.2-.8,3.3-1.2,1.7-5.5,3.4-11,5.3-16.5.8-2.4,4-1.3,4,.9,0,4.4,0,8.8,0,13.2h.4c1.2-24.1,3-48,5.3-71.9.2-2.7,4.1-2.2,4.1.4,0,4,.2,8.1.2,12.1,1,.8,1,2.7,0,5.7v9.2c1.3-.5,3.1.3,3,2.1l-.5,12.4c2.9,1,2.7,4.9-.5,11.7v.3c4.3-10.9,8.7-21.8,13.2-32.6.8-1.9,3.6-1.7,4,.4,2.9,18.1,4,36.6,3.4,55.3v.7c3.8-.9,7.6-1.8,11.4-2.6,4-10.8,8.5-21.4,13.4-31.9,1-2.1,4.1-1.5,4,.9-.5,15.3-2.7,30.3-5.4,45.1,24.3-22.1,51.9-39.7,83.5-43.7,2.1-.3,3.2,2.2,1.7,3.6-35,34.7-65.2,73.3-97,110.5v3.4c9.5-5.8,19-11.6,26.7-18.9,1.6-1.5,3.9.4,3.3,2.3-3.7,11.8-11.1,20.8-18.6,29.9,14.2,2.2,28.4,4.6,42.6,7.3,2.1.4,2.7,3.9.2,4.1-7.9.8-15.8,1.2-23.8,1.5,16.1,6.6,31.7,13.3,46.7,19.9.4.2.8.5,1,1,27.5,6.4,35.7,21,35.8,21.4,0,.3.2.5.2.8,0,.6-.4,1.2-.9,1.5h0c-.2.2-.5.3-.7.3-.6,0-1.2-.3-1.5-.9h0l-.4-.6h0c-.4-.6-.9-1.3-1.4-1.9-2-2.3-4.2-4.4-6.7-6.2-5.5-4.1-13.8-8.4-26.7-11-2.4-.5-4.7-.9-7.1-1.2h-.7c0-.1-.2-.1-.2-.1,0,0-.3-.1-.4-.2-25-3.7-53.9-9.4-82.3-11.2v2.8c12.3,1.9,24.6,3.8,36.9,5.5,2.2.3,2.6,3.9.2,4.1-7.6.7-15.2,1.1-22.8,1.2l7.1,2c2.4.7,1.3,4-.9,4-6.8,0-13.5-.2-20.3-.4v13.1c0,1.4-1.6,2.2-2.8,1.8-1.6-.6-3.2-1.2-4.9-1.8-2.7,3.3-5.8,6.3-9.2,8.8-5,23.8-10.3,47.5-15.4,71.2-.5,2.5-4.5,2.3-4.1-.4.6-3.8,1.1-7.6,1.6-11.3-1.3-.9-1-3.2.9-6.8.8-6.3,1.5-12.6,2.2-18.9l-.7,1.6c-.8,1.9-3.6,1.8-4-.3-1.2-6.8-2.3-13.6-3.2-20.4-.8,6.7-1.5,13.5-2.3,20.2-.3,2.7-4.1,2.2-4.1-.4-.2-7.1-.4-14.1-.5-21.2-6.4,1.4-12.9,2.2-19.5,2.4-2.5,8.2-5.5,16.3-8.8,24.3.4,5.6.7,11.1.8,16.7,0,.3,0,.7-.2,1,.6,9.3.7,18.7.2,28.1,0,2.1-3.1,2.5-3.9.7-3.3-7.1-6.4-14.3-9.2-21.7,0,0,0,.1,0,.2-1,1.7-3.3.7-3.7-.8-2.2-8.4-4-17-5.5-25.6-1.2,2.5-2.4,5.1-3.4,7.7-.9,2.2-4.1,1.4-4-.9.2-4.3.4-8.6.6-12.9-15.3,15.6-30.8,31.1-45.1,47-1.8,2-4.7,0-3.4-2.4,12.8-24,27.6-48,44.7-69.9-1.5-.8-3-1.6-4.4-2.6l-.9-.6h-2.3l-1.5,2.8c-1.3,2.4-4.6-.1-3.4-2.4.7-1.4,1.4-2.7,2.1-4.1-1.9-1.5-3.8-3.1-5.6-4.8-17.4,2.1-34.9,3.5-52.4,4.8-2.2.1-3.6-3-1.2-3.9,4-1.6,8.1-3.4,12.4-5.2l.8-3.9c-5.2,1-10.5,2-15.6,2.9l-5.5,2.6c-1.2.6-2.3-.1-2.8-1.1-17.8,3.1-34.7,5.7-49.3,8.6-1.7.3-3.2-1.8-2.1-3.2,2.1-2.7,4.2-5.4,6.4-8-13.2,4-26.4,7.8-39.7,11.2-2.1.5-3.2-2.4-1.7-3.7,19.2-16.2,40.4-26.1,62.9-31.8,8.1-8.5,16.6-16.8,25.4-24.7-2.9.5-4.4-.1-4.5-1.6h-12ZM308,345.6c6.3,0,11.5-.4,15.7-1.2,4.2-.8,7.6-1.9,10.1-3.3s4.3-3,5.4-4.9c1-1.9,1.6-3.8,1.6-5.8.1-3-1.3-5.8-3.6-7.6-2.4-1.9-5.8-2.9-10.2-2.9s-7.3.7-10.3,2.1-5.6,3.3-7.9,5.6c-2.4,2.4-4.3,5.2-5.9,8.2-1.7,3.1-3,6.4-4,9.9-.1-.1,9.1-.1,9.1-.1ZM133.6,345.6c6.3,0,11.5-.4,15.7-1.2,4.2-.8,7.6-1.9,10.1-3.3s4.3-3,5.4-4.9c1-1.9,1.6-3.8,1.6-5.8.1-3-1.3-5.8-3.6-7.6-2.4-1.9-5.8-2.9-10.2-2.9s-7.3.7-10.3,2.1-5.6,3.3-7.9,5.6c-2.4,2.4-4.4,5.2-5.9,8.2-1.7,3.1-3,6.4-4,9.9,0-.1,9.1-.1,9.1-.1ZM686.1,329.7c2.1-3.8,4-7.6,5.9-11.5.8,8.2,1.3,16.5,1.3,24.9.1,8.1-5.2-7.2-7.2-13.4ZM667.9,295.5c-14.1,14.5-28.5,28.7-42.2,43.5,10.4-11.2,20.3-25.8,30.6-40.8-.8,1.8-1.5,3.5-2.1,5-1,2.3,2.2,3.6,3.7,1.9,3.5-4.1,6.8-8.3,10.1-12.5v2.9ZM682.5,319.1c-1.9-5.7-3.5-11.4-5-17.2l1.1-2c.4,2.7.8,5.4,1.3,8.1.3,1.9,2.7,2.2,3.7.8,2.1-2.7,4.1-5.4,6.1-8.1l1.5,10.5c-2.9,5.9-6,9.8-8.7,7.9ZM669.9,299.4l2.1-2.1,1,3.5c-3.5,6.2-3.8,3.7-3.1-1.4ZM695.4,301c-.2-2.3-.4-4.6-.7-6.9,1.7-2.3,3.5-4.7,5.2-7-1.1,3.5-2.7,8.7-4.5,13.9ZM687.2,286.4c.5,2.6,1,5.3,1.5,7.9-3.2,3.6-5.9,6.1-6.2,4.3-.2-1.4-.5-2.9-.7-4.3,1.7-2.6,3.5-5.3,5.4-7.9ZM675.8,293.4l1.7-1.8v.8c-.5.9-1,1.8-1.5,2.7,0-.1-.2-1.7-.2-1.7ZM668.2,285.7l-1.7,2.2c-8.6,11.6-6.1,6-2.2-1.7l3.7-5.3.2,1.2v3.6ZM744.6,294v-.4l.7-6.1c.7-2.1,1.4-4.2,2.1-6.4l-2.8,12.9ZM740.7,290.1c-1.7,3.9-3.4,5.7-4.3.6-.7-3.7-1.3-7.5-1.8-11.2,2.6-.9,5.1-1.9,7.5-3.1h0l-1.5,13.7ZM726.3,291.3c.3-2.9.6-6.1.8-9.4h.3c0-.1-1.1,9.4-1.1,9.4ZM693.9,288l-.4-3.4c.8.1,1.7.1,2.5.2v.6c-.7.8-1.3,1.7-2.1,2.6ZM674.7,283.7l1.7-2.3h0c.2,1.6.3,3.1.5,4.7l-1.7,1.8c-.2-1.3-.4-2.7-.5-4.2ZM696.9,274.4c-.2,1.9-.3,3.9-.5,5.8-1.2-.1-2.4-.1-3.6-.3v-.6c1.3-1.6,2.7-3.3,4.1-4.9ZM719.9,278.4c-4.5,1-9,1.6-13.6,1.8l1-3.6c5.2-7.3,10.2-14.7,15.1-22.2l1.5-.9c0,7.8.2,15.7.4,23.5-1.5.6-2.9,1-4.4,1.4ZM683.8,271c.5,2.1,1,4.2,1.5,6.3l-1.2,1.3c-1.3-.3-2.6-.6-3.9-.9v-1.4c1.2-1.8,2.4-3.5,3.6-5.3ZM702.8,276l-1.2,1.7,1.8-10.1,1.8-1.8c-.7,3.3-1.5,6.7-2.4,10.2ZM674.1,275.8l-.2-2.8.6-.9,1.1-.2c0,1.1.2,2.1.2,3.2l-.7,1-1-.3h0ZM728.1,275.5l-.7.3c.3-6.7.4-14,.5-21.4.4,4,.8,8.1,1.2,12.1l-1,9ZM733.1,269l1.7-14.5c.4-.3.6-.8.7-1.3l.5-3.4c2,.8,4,1.6,6,2.4l-.8,17.2c-2.6,1.4-5.2,2.6-7.6,3.7-.2-1.3-.3-2.7-.5-4.1ZM691.4,270.7l-.4-2.3c1.1-.3,2.3-.7,3.4-1.1,0,0-3,3.4-3,3.4ZM46.2,268.3H5.3c-2.1,0-6.4-2.3-5-10.7L40.1,88.5h35.5c2.4,0,6.1.3,7.9,1.2,2.9,1.3,3.5,6.7,3.8,8.7.3,2.1,0,8.2,0,8.2,0,0,5.9-11.9,9.1-14.9,3.4-3.2,8.4-3.2,8.4-3.2h49.3l-6.1,23.5c-1.5,4.6-2,5.9-3.9,8.1-2.3,2.7-5.6,4.4-9.2,4.5h-37.3c-6.1,0-10.8,1.2-13.9,3.6-2.1,1.1-5.5,5.1-6.4,9.7-1,4.6-31,129.9-31.1,130.4h0ZM291.5,108.1c-4.7-9.8-9.7-12.7-13.8-14.5-4.2-1.8-20.4-5.1-49.9-5.1s-43.3,2-54.9,8.4c-11.3,6.2-18,17.6-27.6,43.4s-14.4,51.2-14.4,76.2l.8,14.3,2.2,12.1c2.8,8,6.2,13.7,10.3,17.1s8.8,5.6,14,6.7,11.3,1.7,18.4,1.7h68.1c12.7,0,18-12.6,18.4-14l6.7-27.3h-72.8c-18.6,0-21.6-6.1-20.7-13.4.9-7.3,4.3-29.4,4.3-29.4h92.5c9.1,0,11.7-1.5,13.7-5.9,2.8-7.2,7.1-45.4,7.1-45.4.7-7.7,1.9-15.9-2.4-24.9ZM366.8,268.3h-32.9c-4.2,0-24.7-.7-33.2-20.1-3.2-9.6-3.6-16.5-3.6-23.8,0-20.1,5.3-44.4,15.9-72.8,10.6-28.5,20.7-44.6,29.3-50.3,16.7-11.1,39-9.5,39-9.5h54.6l11.4-46.6h29.4c2.8,0,5.4,1.1,7.6,3.2,2.4,2.1,3.5,5.1,3.5,8.8l-54.6,211h-34.7c-1.7,0-3.4-.6-4.7-1.7-1.3-1.2-3.7-5.2-2.8-9.1l5.3-20-15.1,23.3c0,.1-5.4,7.6-14.4,7.6ZM661.2,266.3c.7-1.2,1.6-2.5,2.6-3.8h.8c.3,1.8.7,3.8,1,5.7-3.1,0-5.2-.5-4.4-1.9ZM624.6,263.1c-5.5.5-28.8,6.8-18.4,2.1.6.7,1.6.9,2.5.6,6.8-3.2,13.5-6.6,20.2-10.1,3-1.2,6-2.4,9-3.7,1.6,3.1,3.8,6.2,6.4,9.1-6.6.8-13.1,1.4-19.7,2ZM679.5,266.7v-1c0,0,2.3-3,2.3-3v.6c0,0,.7,2.2.7,2.2l-.5.8-2.5.4ZM747.8,265.8l-.3.2.2-1.6,2.1-9,.5.2c-.8,3.4-1.6,6.8-2.5,10.2ZM714.8,258.7c-1.5,2.2-3.1,4.5-4.6,6.7.4-1.6.7-3.3,1.1-4.9,1.2-.6,2.4-1.2,3.5-1.8ZM655.6,265.2c-.5-.4-.9-.8-1.4-1.2l1.5-.2c0,.2.2.4.4.5,0,0-.5.9-.5.9ZM743.5,264c-.5,1.3,0-1.9.8-6.8l-.8,6.8ZM584.4,251.1c-2,.7-1.3,3.4.4,3.9l-.2.6c-4.6.9-9.2,1.8-13.7,2.7-6.7,1.3-13.5,2.6-20.2,3.8-10.7,2-14.4,5.3-5.3-5.7l.2-.3c15.1-4.8,30.1-9.9,45-15.5-1.5,3.2-2.9,6.5-4.1,9.7,0,0-2.1.8-2.1.8ZM691.2,263.4l.4-3.7,2.2-3.2c1.5-.4,3-.8,4.6-1.2l-.4,5.5c-2.3.9-4.5,1.8-6.8,2.6ZM527.4,257.5c-29,8.8-19.9,3.3,1.4-8.3,8.6-4.7,17.7-8.2,27.1-10.8-4.3,4.7-8.5,9.4-12.6,14.2-5.3,1.6-10.6,3.3-15.9,4.9ZM755.8,260.6l.6-2.8,2,.8c-.8.7-1.7,1.4-2.6,2ZM656.9,259.6c-2.1.3-4.2.6-6.2.8-2.9-3.1-5.3-6.6-7.4-10.3v-.2c6.1-2.4,12.3-4.7,18.6-6.9.3,2.4.6,4.8.9,7.1-1,2.2-2,4.4-3.1,6.5-1,1-1.9,2-2.8,3ZM623.8,253.1l-8.9,3.8c-.6-.4-1-.9-1.2-1.6,3.4-.7,6.7-1.4,10.1-2.2ZM594.6,253.6l-4,.8v-.2c1.5-.3,3-.5,4.4-.8,0,0-.4.2-.4.2ZM757.5,252.5l1.1-5.7c2.1.1,4.1.2,6.2.3-1.3,3-4.1,5.1-7.3,5.4ZM751,252.2h-.5c0-.1,1.3-5.7,1.3-5.7h.3c-.4,1.9-.7,3.8-1.1,5.7ZM696.8,252l1.9-2.8-.2,2.4c-.5.1-1.1.3-1.7.4ZM731.1,250.8l-.2-2,.5-.3s-.3,2.3-.3,2.3ZM693.2,249.6l-.7,1v-.3c0,0,.7-.7.7-.7ZM563,236.5c10.5-2.3,21.2-3.9,32-4.6-.5,1-1,1.9-1.5,2.9-5.5,2.1-11,4.2-16.5,6.3-8.7,3.2-17.5,6.2-26.4,9.1,4-4.6,8.1-9.2,12.4-13.7ZM742.1,249.3c-1.9-.8-3.8-1.7-5.7-2.6l.2-1.4c1.9.2,3.7.3,5.6.5v3.5ZM593.2,248.1c1.4-3.1,3.1-6.7,4.9-10.3,5.1-2,10.3-4,15.4-6-1,3.7-2,7.4-3,11.1-5.8,1.6-11.6,3.4-17.3,5.2ZM772,243.2l.2-.9c4.2.8,8.4,1.2,12.5,1.3-4.2-.1-8.5-.2-12.7-.4ZM766.1,243l-6.7-.4.2-1.2c2,.1,4,.2,6,.2.2.2.4.5.6.8v.6ZM752.9,242.1h0l.2-1-.2,1ZM623.5,239.6c-2.9.7-5.8,1.4-8.7,2.2.9-3.5,1.8-7.1,2.8-10.6,5,0,10,0,15,.1h.9c0,1.1,0,2.2,0,3.3l-2.1,1.1c-2.6,1.3-5.2,2.6-7.8,3.9ZM742.5,241.3l-1.9-.2,1-.9h1c0,.1,0,1.1,0,1.1ZM770.9,237.8h2.5c3.8.1,36,3.2,21.4,1-8-1.2-15.9-2.4-23.9-3.7v2.7ZM852.7,236.6c-10.9-4.7-21.8-9.3-32.8-13.7-5.1-2-10.3-4-15.4-5.9-5.7.1-11.5.1-17.2.1-1,1.5-1.9,3-2.8,4.5-1.2,2-3.7.4-3.8-1.4v-3.2c-3.3-.1-6.7-.1-10-.2v8.3c23.9,1.3,47.3,5,66.8,7.9,3.2.5,11.4,3,15.1,4,0-.2,0-.3.1-.4ZM766.7,236.8l-1.1-.3c-1.5-.8-3-1.5-4.6-2.2v-.7c0,0,5.7.9,5.7.9v2.3ZM649.8,231.9h1.1c0,.1-1.4,2.6-1.4,2.6-2.5.4-4.9.8-7.4,1.2,2.6-1.2,5.1-2.5,7.7-3.8ZM637.6,231.6v.8c0,0,2-1,2-1h-2c0,0,0,.2,0,.2ZM593.4,207.8h14.6c.3.6.8,1.2,1.4,1.6-2.7,3.7-5.2,7.4-7.6,11.1-3.5.4-6.9.8-10.4,1.3-2.4.3-2.1,3.8.2,4.1l6.4.8-.7,1.3c-10.2.8-20.3,2.2-30.2,4.4,8.3-8.6,17.2-16.8,26.3-24.6ZM602,231.5l-.9.3.2-.3h.7ZM766.7,227.9v2.4c-1.6-.3-3.2-.5-4.8-.8l.3-1.8c1.5,0,3,.1,4.5.2ZM426.4,128.7h-38.2c-5.6,0-10.5,1.4-14.7,4.3-4.2,2.9-8.5,9.1-13,18.6l-11.4,29.4c-3.7,10.3-12.8,34.5,5.3,44.8,5.2,2.6,11.3,3.9,18.5,3.9,0,0,16.3.6,26.2-5.3l27.3-95.7ZM604.5,227.5h-1.2c0,.1,0,0,0,0,0,0,1.1,0,1.1,0ZM637.5,226.5c0-1.4.2-2.9.5-4.3,1.6,0,3.1,0,4.7.1,2.6,1.2,5.2,2.4,7.9,3.5l-2.7,1.4c-3.5-.2-7-.4-10.4-.7ZM628.1,225.8c2.2-.9,4.4-1.9,6.7-2.9-.3,1.1-.5,2.2-.7,3.4-2-.1-4-.3-6-.5ZM665,226c0,0-.2-.1-.3-.1v-1.5c0,0,.1-.1.1-.1l.2,1.7ZM763.2,222.1c.5-.3.9-.7,1.1-1.3l2.3-1.5v5.5h-3.9c0-.1.5-2.7.5-2.7ZM616,222.9c-.2.5-.3,1.1-.5,1.6-3.4-.3-6.7-.5-10.1-.4h0c3.5-.5,7-.9,10.5-1.2ZM620,222.7c1.4-.1,2.7-.2,4.1-.2-1.5.6-3.1,1.3-4.6,1.9l.5-1.7ZM656.3,222.7h0c0,.1-.2,0-.2,0h.3ZM743.4,220.3v-1.1l-.3.5v.4c.2,0,.3.2.3.2ZM619.5,211.8c-.8,2.4-1.5,4.9-2.3,7.3-3,.2-6,.4-8.9.7,2-2.9,4-5.8,6-8.7,1.4.4,3.2.6,5.2.7ZM623.4,212.1h.7c3.3,2.1,6.7,4.1,10.1,6l-.9.4c-4.1.1-8.1.2-12.2.4.8-2.3,1.6-4.5,2.3-6.8ZM646,218.5l-.5-.2,5.5-2.5c2.9.4,5.7.8,8.5,1.2v.4l-.9,1.5c-4.2-.2-8.4-.4-12.6-.4ZM640.7,212.7h3.8c0,.3,0,.6,0,.9l-4.6,2.1-.4-.2c.3-1,.7-1.9,1.1-2.8ZM634,212.5c1.5,0,3,.1,4.5.1l-.8,1.8c-1.2-.6-2.5-1.2-3.7-1.9ZM795.2,213.5h-5.5l1.2-1.6c-.1,0,4.3,1.6,4.3,1.6ZM780.6,210.2v3.2h-4.8c0-.1,4.8-3.2,4.8-3.2ZM803,208.6c-.8-.1,28,3.1,23.4,3.5-6.1.6-12.3.9-18.4,1.1-4.7-1.9-9.3-3.7-14-5.5l.4-.5c2.9.5,5.8,1,8.6,1.4ZM764.7,213.1l.4-2.5,1.4-1.5v4.1s-1.8-.1-1.8-.1ZM784.6,212.8c.6-.8,1.2-1.7,1.9-2.5l-1-.4c0,1.1-.4,2-.9,2.9h0ZM770.4,206.1l1.1-.3,1.2-.3,5.2,1.8c-1.4.9-3,1.9-4.7,3l-2.6,1.7c-.1-2-.1-4-.2-5.9ZM640.5,208.7c-3.5-.2-6.9-.5-10-1h7l3.2.7-.2.3ZM748.9,203.6c1.1-.5,2.1-1.1,3.2-1.6l.2-.8-3.5-.5-.3.6v2.3c-.2,0,.4,0,.4,0ZM791.9,202.8l1.9-1.3-1.2,1.4c-.1,0-.7,0-.7,0ZM605.5,197.8c0,.1.3.2.4.4-.2.9,0,1.8,1.3,2.2h.5c0,.7-.2,1.3-.3,1.9l-7.9.4c1.9-1.6,3.9-3.3,6-4.9ZM622.4,200.5l.2-.3.7.3v.2c-.4,0-.6-.2-.9-.2ZM651.5,189.9c.7.2,1.4.3,2.1.5-2.9,3.3-5.6,6.7-8.1,10.2h-2.1c-10.3-8.4-15.1-16.1,8.1-10.7ZM655.5,190.9c.7.2,1.4.4,2,.6l1.2,4.1c0,1.5,0,3,0,4.5-3.8.1-7.5.2-11.3.3,2.4-3.3,5.1-6.5,8-9.5ZM778.7,200l2.4-1.6v1.1c0-.1-2.4.5-2.4.5ZM634.7,199.7l-6.1-2.7,1-2.8c1.7,2,3.4,3.8,5.1,5.5ZM616,197.3l2,.8-.6.7c-.8-.4-1.3-.9-1.4-1.5ZM811.9,177.7l.5-.4c-3,2.4-6,4.6-9.2,6.7-5.7,3.7-11.5,7.4-17.2,11.1v3.1c2.7-.6,5.5-1.3,8.2-1.9,1.1-.2,2.1.6,2.4,1.7,4.7-6.3,10-15.9,15.3-20.3ZM770.2,197.9c-.2-5.7-.4-11.4-.7-17.1.8-6,1.4-12.1,2-18.1l1.1-4.3c5.5-4.9,11-9.8,16.5-14.7-2.5,13-4.8,25.8-6.5,38.8-4,5.1-8.2,10.2-12.4,15.4ZM763.1,196.8l.8-3.6-.6,3.7s0,0-.2,0ZM608.9,195.2c0,.1,0,.2,0,.3h-.2c0,.1,0,0,0,0l.4-.3ZM674.8,191.4l2.3.3v.8c-.6.7-1.2,1.3-1.7,2l-.6-3.1ZM682.3,192.5h0c0-.1,1.3,0,1.3,0v1.7c0,0-1.4-1.8-1.4-1.8ZM779.7,194.1l2-2.3v1.1c0,0-2,1.2-2,1.2ZM621.5,194l-1.7-.7c1.2-.7,2.5-1.3,4-2,0-.1-2.3,2.7-2.3,2.7ZM753.7,193.8l-1.2-.4c.8-1.5,1.5-3.1,2.2-4.6-.3,1.7-.7,3.3-1,5ZM749.2,183.6c3.3-2.7,4.3-1.7.7,6.3-.4.8-.7,1.6-1.1,2.4h0s.4-8.7.4-8.7ZM628.1,185.2c-.4.1-.9.2-1.3.3-.8.2-1.5.8-1.6,1.6-3.2,1.3-6.4,2.8-9.5,4.4l-1.4-.6c2.9-2.2,5.8-4.3,8.7-6.4l5.1.7ZM691.8,184.5c-.3,1-.6,2.1-.9,3.2l-1.2,1.4-1.9-.3-.2-2.8c.5-.5,1.2-1.2,2-2,0,.1,2.2.5,2.2.5ZM609.3,182.5l7.2,1.1c-2.3,1.8-4.6,3.6-6.9,5.4-1.9-.8-3.7-1.5-5.6-2.3.5-1.9,2.5-3.2,5.3-4.2ZM735,187.9c0,.1,0,.3-.2.4-2.2-.6-4.3-1.1-6.5-1.7v-2.3c1.2-1,2.5-1.9,3.7-2.9l2.4.2c.4,0,.7.1,1,.2-.2,2-.3,4.1-.4,6.1ZM678.1,182.4c-.2,1.7-.4,3.3-.5,4.9-1.3-1.4-2.5-2.8-3.8-4.2v-1.2c1.5.1,2.9.3,4.3.5ZM682.5,183c.2,0,.4.1.6.1v1.9c0,0-1,1.3-1,1.3l.4-3.3ZM654.8,182.4l.7,2.3-7.2-1c2.1-.5,4.3-.9,6.5-1.3ZM594.6,181.8c-.4.1-.8.3-1.1.7-3.8-1.5-7.7-2.9-11.5-4.3,5.6.9,11.1,1.8,16.7,2.7-1.4.3-2.8.6-4.1.9ZM647.2,180.1c-3,.7-5.9,1.4-8.8,2.3h-.6c.7-.9,1.5-1.7,2.2-2.6,2.5,0,5,.2,7.2.3ZM629.5,179.9h1.2l-.5,1.4-2.2-.3c0,0,1.5-1.1,1.5-1.1ZM749.4,178.5c3.2-2.8,6.5-5.6,9.7-8.3l-.2.8c-.4,0-.8.2-1.1.4-2.9,2.4-5.7,4.9-8.4,7.5v-.4ZM739.7,174.8l.3-.3-.4,3.3h0c0,0,.2-3,.2-3ZM843.1,89.6c12.2-7.2,43.5-23.1,19.6,1.1-20.8,21.1-40.4,43.3-59.2,66.1-5.6,6.8-11.1,13.6-16.6,20.4,1.5-12.5,3.9-24.9,6.3-37.2,8.7-7.8,17.5-15.5,26.4-23.1,1.8-1.6,3.5-3,5-4.4,7.7-5.9,15.3-11.8,22.9-18,2.1-1.7-.6-4.8-2.7-3.2-6.7,5.2-13.3,10.4-19.8,15.8-1.5,1.1-3.2,2.4-5.2,3.9-8,6.1-16.2,12-24.5,17.7l.7-3.5c.5-.4.9-.9,1.3-1.3,14-13.1,29.3-24.6,45.8-34.3ZM728.2,176.3l2-1.2-2,1.7v-.5ZM678.9,175.9c-1.7.1-3.3.2-5,.3v-.8c1.8-1.3,3.7-2.6,5.6-3.8,0,0-.6,4.3-.6,4.3ZM711.5,167.7c-.7,2.9-1.4,5.7-2.2,8.1-1,0-1.9-.1-2.9-.1v-1.6c1.8-2.1,3.5-4.2,5.1-6.4ZM637.1,174.7c1.7-1.2,3.4-2.3,5.1-3.4-1.5,1.5-2.9,3-4.4,4.5h-1.2c0,.1.5-1.1.5-1.1ZM658.8,172.1v3.7c0,0-1.3-.1-1.3-.1-.9-2.9-1.8-5.7-2.8-8.6,1.4,1.7,2.8,3.4,4.1,5ZM644,175.6c2.1-2.3,4.3-4.5,6.5-6.7.7,2.2,1.5,4.5,2.2,6.7h-8.7ZM691.8,175.5c-1.6,0-3.3,0-4.9.1-.2-2.8-.4-5.6-.6-8.3,6.2-3.4,8.3-.5,7.8,5.9-.8.7-1.6,1.5-2.3,2.3ZM749.7,172.8c3.4-3,7.6-6.7,8-7.2,1.3-1.5,2.6-2.9,3.8-4.4l-.5,1.8c-3.8,3.3-7.5,6.6-11.4,9.9.1,0,.1-.1.1-.1ZM681.2,157.8c-.4,3.1-.9,6.2-1.3,9.4-2,1.4-4.1,2.9-6.1,4.5,0-6.5,0-13-.4-19.5,2.3-1.3,4.6-2.6,6.9-3.8.4,3.1.7,6.2.9,9.4ZM728.3,163.9c1.7-5.5,3.5-10.9,5.4-16.4,1.1-.7,2.1-1.3,3.1-1.7l-.5,12.8c0,2.7-.2,5.4-.4,8.2-2.6,1.5-5.1,3-7.7,4.5,0-.1.1-7.4.1-7.4ZM706.7,168.7v-.3l.8-.7-.8,1ZM750,165.3c1.6-1.6,3.2-3.2,4.8-4.8l3.5-2.1c-2.8,3.3-5.6,6.7-8.3,10,0,0,0-3.1,0-3.1ZM645,154.4l.8,1.1c.7,2,1.5,4,2.2,6-2.6,1.7-5.1,3.4-7.7,5.1,1.5-4.2,3.1-8.2,4.7-12.2ZM656.8,162.6l1.7-1.6h0c0,1.3,0,2.6,0,3.9l-1.8-2.3ZM740.9,144.3v19.5c-.2.1-.5.3-.7.4.3-6.6.5-13.3.7-19.9ZM687.8,144.4c4-2.1,8-4.1,12-6.1l-1.8,18c-.3,0-.6.1-.9.2-3.8,2-7.6,4.2-11.2,6.6l-.3-3.9c.7-4.9,1.4-9.8,2.2-14.8ZM659.9,117.3c-.5,5.8-.9,11.5-1.2,17.3-.8.2-1.4.7-1.4,1.7.2,5.6.5,11.3,1,16.9v1.6c-1.7,1.1-3.4,2.1-5.1,3.2l-3-4c-.8-2.2-1.6-4.4-2.4-6.5,4-10.1,8.1-20.1,12.1-30.2ZM711,157.5c.6-1.1,1.2-2.2,1.8-3.3v1.8l-1.8,1.5ZM763.7,143.1c-4.1,4.9-8.6,9.6-13.3,14.1l1.8-41.4c5.7-2.1,11-4.2,15.5-5.5-1.6,10.9-3,21.8-4,32.8ZM712.9,146.2c-2,3.2-3.9,6.5-5.7,9.8l.7-21.6c1.7-.8,3.4-1.6,5-2.3v14.1ZM251.2,155.4c0-.1,7.2-22.2-5.6-31.2-9.8-6.9-24.5-4.5-29.1-3.5-4,.9-22.8,6.5-29.2,34.7h63.9ZM728.4,150.9h0s0,.2,0,.3v-.3ZM789,138.2c-4.8,4.3-9.7,8.6-14.5,12.9l1.1-3.9c4.6-3,9-6,13.4-9ZM703,150.1v-3.3c0,0-.2,2.4-.2,2.4l.2.9ZM666.1,147.9h0c-.5-2.7-1-5.3-1.4-8,0-.7-.5-1.2-1.2-1.5,0-5-.3-10-1-14.9,1.3,8.1,2.5,16.3,3.6,24.4ZM718.2,145.1l.8-1.3h0c-.3.6-.5,1.1-.8,1.6v-.3ZM728.5,143.8c1.7-2.7,3.4-5.3,5.1-8.1l-2.4,7.1c-.9.6-1.8,1.1-2.7,1.7,0,.1,0-.7,0-.7ZM679.8,142.4l-3.4,1.9.9-.8c.8-.7,1.6-1.4,2.4-2.1v1ZM679.1,134.8v.9c-1.9,1.8-4,3.7-5.9,5.5l.4-21.1c.3-15-.3-37.3-1.6-47.3,2.7,20.6,5,41.3,7.1,62ZM664,107c.6-1.6,4.6,24,4.7,24.8.2,2,.4,3.9.5,5.9v2.9c-1.4-9.9-2.9-19.8-4.5-29.7,0-.8-.7-1.4-1.5-1.6.3-.9.6-1.6.8-2.3ZM684.3,137.5l-.4,2.8h0l-.2-2.2c0,0,.6-.6.6-.6ZM736.9,139.4l-.7.4.8-2.2v1.8ZM773.5,137.3l1-1.4-1.1,3.7v-2.3ZM625.9,117.7c-10.8-18.3-18.2-38-23.6-58.5,1.5,5.6,12.2,24.4,17.2,34.3,7.4,15,14.2,30.3,20.2,45.8-4.8-7-9.4-14.2-13.8-21.6ZM728.8,130.5l1.5-6.1c2.4-1,4.8-2,7.1-2.9v1c-2.7,5.3-5.6,10.4-8.8,15.5l.2-7.5ZM718.2,129.7l1.5-.6-.3,6.9-1.1,1.7c-.1-2.7-.1-5.3-.1-8ZM689.6,133.2c3.8-3,7.7-5.9,11.6-8.7l-.8,7.4c-3.9,1.9-7.8,3.8-11.6,5.7.1,0,.8-4.4.8-4.4ZM785.7,135.4c2-2.1,4.1-4.1,6.2-6.1l-.4,2.2c-1.9,1.3-3.9,2.6-5.8,3.9ZM790.1,104.6c.2-.6,0-1.3-.3-1.9,3.4-8.4,8.8-20.7,8.8-20.1-.4,12.6-2.6,25.2-5,37.6-4.9,4.7-9.7,9.5-14.4,14.4,1.6-5.3,3.2-10.5,4.9-15.7,2.3-4.6,4.3-9.4,6-14.3ZM774.3,108.6c8.1-1.2,10.1,3-.4,20.3.2-6.7.4-13.5.4-20.3ZM712.9,126.1c-1.6.7-3.2,1.4-4.8,2.1l.3-8.7c1.5-1,3-2,4.5-2.9-.1,3.2,0,6.4,0,9.5ZM706,46.3c2.6-13.5,2.6-43.4,4.6-11.4,1.6,25.1,1.9,50.2,2.2,75.2v.3c-1.4.8-2.8,1.7-4.2,2.6,0-3.1.2-6.3.4-9.4,2.1-4.7,2.2-7.6.3-8.6.2-4.2.3-8.5.5-12.7,0-2.7-3.9-3.1-4.1-.4-1.2,11.8-2.4,23.7-3.6,35.5-3.8,2.6-7.5,5.4-11.1,8.3,4.6-26.7,10-53.3,15-79.4ZM720.4,112l-.5,11.1-1.8.7c0-3.5,0-6.9-.2-10.4,0,.1,2.5-1.4,2.5-1.4ZM734.9,107.4l.9-3.2c.7-.3,1.4-.5,2.1-.7,0,1.9-.2,4.2-.2,6.7s0,4,0,6c-1.9.7-3.8,1.4-5.6,2.1.8-3.7,1.8-7.3,2.9-10.9ZM729.2,107.2c.6-.3,1.3-.6,1.9-.9-.7,2.4-1.4,4.8-2,7.2,0,0,0-6.3,0-6.3ZM768.3,106.4c-5.3,1.4-10.6,3-15.9,4.7l.8-17.3c4.2-10.8,8.5-21.5,12.8-32.2,5.9-14.6,4.3,30.6,4,23,0,3.9,0,7.9,0,11.8h0c-.6,3.3-1.1,6.7-1.7,10ZM741.8,102.8h.2l-.3,7.4c0-2.4,0-4.9,0-7.4ZM738.1,99.9c-.4,0-.7.2-1.1.3,1.2-4.3,1.3-3.6,1.1-.3ZM747.3,81.1l-.3,8.6c0,2.9-.3,5.8-.4,8.7h-.2c.2-5.7.5-11.5.9-17.3ZM511.6,65.5h-2.6v-17.8h5l3.7,11.5,3.7-11.5h5v17.8h-3.3v-15.6l-4.9,15.6h-1.7l-4.9-15.6v15.6ZM506,50.4h-4.7v15.1h-3.5v-15.1h-4.7v-2.7h12.9v2.7Z"/>
</svg>