<?xml version="1.0" encoding="utf-8"?>
<!-- Generator: Adobe Illustrator 23.1.1, SVG Export Plug-In . SVG Version: 6.00 Build 0)  -->
<!DOCTYPE svg PUBLIC "-//W3C//DTD SVG 1.1//EN" "http://www.w3.org/Graphics/SVG/1.1/DTD/svg11.dtd" [
	<!ENTITY ns_extend "http://ns.adobe.com/Extensibility/1.0/">
	<!ENTITY ns_ai "http://ns.adobe.com/AdobeIllustrator/10.0/">
	<!ENTITY ns_graphs "http://ns.adobe.com/Graphs/1.0/">
	<!ENTITY ns_vars "http://ns.adobe.com/Variables/1.0/">
	<!ENTITY ns_imrep "http://ns.adobe.com/ImageReplacement/1.0/">
	<!ENTITY ns_sfw "http://ns.adobe.com/SaveForWeb/1.0/">
	<!ENTITY ns_custom "http://ns.adobe.com/GenericCustomNamespace/1.0/">
	<!ENTITY ns_adobe_xpath "http://ns.adobe.com/XPath/1.0/">
]>
<svg version="1.1" id="Layer_1" xmlns:x="&ns_extend;" xmlns:i="&ns_ai;" xmlns:graph="&ns_graphs;"
	 xmlns="http://www.w3.org/2000/svg" xmlns:xlink="http://www.w3.org/1999/xlink" x="0px" y="0px" viewBox="0 0 900 431.3"
	 style="enable-background:new 0 0 900 431.3;" xml:space="preserve">
<style type="text/css">
	.st0{fill-rule:evenodd;clip-rule:evenodd;fill:#EE3426;}
</style>
<metadata>
	<sfw  xmlns="&ns_sfw;">
		<slices></slices>
		<sliceSourceBounds  bottomLeftOrigin="true" height="431.3" width="900" x="-400" y="-165.7"></sliceSourceBounds>
	</sfw>
</metadata>
<path class="st0" d="M504.8,311.9c0.1-0.4,0-0.8-0.1-1.2c-0.1-0.4-0.4-0.7-0.9-0.9c-0.6-0.3-1.2-0.5-1.9-0.5c-1-0.1-2-0.1-3-0.1
	c-2.4,0-4.1,0.2-5.3,0.6c-1.1,0.4-1.8,1.1-2.1,2.1l-1.7,8.4c-2.8-3.7-6.2-6.8-10.2-9.2c-3.8-2.2-8.3-3.3-13.6-3.3
	c-5.2,0-9.9,1-14.1,3.1c-4.1,2-7.8,4.7-11,8.1c-3.2,3.4-5.9,7.3-8.1,11.5c-2.2,4.2-4.1,8.7-5.5,13.2c-1.4,4.4-2.4,8.9-3.1,13.5
	c-0.7,4.5-1,8.5-1,12.1c0,4.3,0.4,8.2,1.3,11.9c0.8,3.7,2.2,6.8,4.1,9.5c1.9,2.7,4.4,4.8,7.5,6.3c3.1,1.5,6.9,2.3,11.4,2.3
	c3.4,0,6.7-0.6,10-1.8c3.3-1.2,6.3-2.8,9-4.7s5.2-4.1,7.2-6.4c1.9-2,3.4-4.4,4.6-6.9c-0.7,2-1.5,4.9-2.5,8.6c-1,3.7-2,8.4-3,14
	c-0.6,2.9-1.5,5.4-2.7,7.5c-1.2,2.1-2.8,3.8-4.7,5.2c-2.1,1.4-4.4,2.4-6.8,3c-2.6,0.7-5.5,1-8.7,1c-3.9,0-7.1-0.3-9.8-1
	c-3.9-0.9-7.5-2.4-11-4.4c-0.8-0.6-1.7-0.9-2.7-1c-0.6,0-1.1,0.2-1.5,0.5c-0.5,0.4-0.9,0.8-1.2,1.4c-0.4,0.6-0.6,1.3-0.8,2
	c-0.2,0.7-0.4,1.4-0.5,2.1c-0.1,0.7-0.2,1.4-0.3,2c0,0.5,0,1-0.1,1.6c0,0.9,0.2,1.7,0.5,2.3c0.5,0.7,1.1,1.3,1.8,1.8
	c2.4,1.4,5.7,2.6,9.8,3.6c4.1,1,8.6,1.5,13.6,1.5c5.2,0.1,10.3-0.6,15.3-1.8c4.2-1.1,8.2-3,11.7-5.5c3.3-2.4,6-5.5,8.1-9.2
	c2.1-3.7,3.7-8,4.6-12.9C487.4,401.8,504.8,311.9,504.8,311.9z M543.4,380.2c3.6-5.3,7-10.7,10-16.4c3-5.5,5.7-11.2,8.2-16.9
	c2.5-5.7,4.8-11.5,6.9-17.3c2.1-5.8,4.1-11.7,6-17.7c0.1-0.5,0.3-0.9,0.7-1.3c0.4-0.4,0.9-0.7,1.5-0.9c0.8-0.3,1.7-0.5,2.5-0.5
	c1.1-0.1,2.4-0.1,4-0.1c2.7,0,4.5,0.2,5.4,0.6c0.9,0.4,1.3,0.9,1.3,1.7c0,0.7-0.1,1.4-0.2,2.1c-0.1,0.7-0.3,1.4-0.6,2
	c-2.1,5.9-4.2,11.7-6.5,17.5c-5.3,13.7-11.7,27.1-19,39.8c-4.5,7.8-9.5,15.4-14.8,22.8l-23.2,32.6c-0.4,0.5-0.8,1-1.3,1.3
	c-0.6,0.4-1.3,0.7-2,1c-0.9,0.3-1.9,0.5-2.8,0.6c-1.3,0.1-2.6,0.2-3.9,0.2c-1.6,0-2.9-0.1-4-0.2c-0.8-0.1-1.6-0.4-2.4-0.8
	c-0.5-0.3-0.8-0.9-0.7-1.5c0.2-0.8,0.5-1.6,1.1-2.2l21.8-29l-13.3-81.3c-0.1-0.7-0.2-1.4-0.3-2c-0.1-0.5-0.1-1-0.1-1.6
	c0-0.7,0.1-1.3,0.3-1.7c0.3-0.5,0.7-0.9,1.2-1.1c0.8-0.3,1.6-0.5,2.4-0.6c1-0.1,2.2-0.1,3.6-0.1c1.6,0,2.9,0.1,3.8,0.1
	c0.7,0.1,1.5,0.2,2.2,0.5c0.5,0.2,0.9,0.5,1.1,1c0.2,0.5,0.4,1,0.4,1.6l10.5,67.9C543.2,380.2,543.4,380.2,543.4,380.2z
	 M296.3,356.7c-0.4,1.9-0.7,3.9-0.9,5.9c-0.1,1.8-0.2,3.6-0.2,5.4c0,6.2,1.5,10.9,4.4,14.1c2.9,3.3,7.7,4.9,14.4,4.9
	c3.8,0,7.2-0.3,10.3-0.9c3-0.6,5.7-1.2,7.9-1.9c2.2-0.7,4.1-1.3,5.5-1.9c0.9-0.4,1.9-0.7,2.9-0.9c0.5,0,0.9,0.2,1.2,0.6
	c0.3,0.4,0.4,1,0.4,1.7c0,0.6-0.1,1.3-0.2,2.2c-0.2,1.8-0.7,3.6-1.5,5.2c-0.3,0.7-0.8,1.4-1.3,2c-0.7,0.7-2,1.5-3.8,2.2
	c-2.1,0.8-4.3,1.4-6.5,2c-2.7,0.6-5.5,1.1-8.2,1.4c-3,0.4-6,0.6-8.9,0.6c-5.3,0-10-0.6-14-1.8c-3.7-1.1-7.1-3-10-5.7
	c-2.7-2.7-4.8-5.9-6-9.6c-1.3-3.8-2-8.3-2-13.5c0.1-9,1.6-18,4.6-26.5c1.6-4.5,3.7-8.8,6.3-13c2.6-4.1,5.6-7.8,9.2-10.9
	c3.6-3.2,7.8-5.7,12.3-7.6c5-2,10.4-3,15.7-2.9c5,0,9.3,0.7,12.8,2c3.5,1.3,6.3,2.9,8.6,5c2.2,2,3.9,4.3,4.9,6.8
	c1,2.5,1.5,5,1.5,7.4c0,4.3-1,8.1-2.9,11.5c-1.9,3.4-4.9,6.3-8.9,8.7c-4.1,2.4-9.2,4.2-15.6,5.5c-6.3,1.3-13.9,2-22.7,2
	C305.7,356.7,296.3,356.7,296.3,356.7z M121.9,356.7c-0.4,2-0.7,3.9-0.9,5.9c-0.1,1.8-0.2,3.6-0.2,5.4c0,6.2,1.5,10.9,4.4,14.1
	c3,3.3,7.7,4.9,14.4,4.9c3.8,0,7.2-0.3,10.3-0.9c3-0.6,5.7-1.2,7.9-1.9c2.2-0.7,4.1-1.3,5.5-1.9c0.9-0.4,1.9-0.7,2.9-0.9
	c0.5,0,0.9,0.2,1.2,0.6c0.3,0.4,0.4,1,0.4,1.7c-0.1,1.6-0.3,3.3-0.7,4.9c-0.2,0.9-0.5,1.7-0.9,2.5c-0.3,0.7-0.8,1.4-1.3,2
	c-0.7,0.7-2,1.5-3.8,2.2c-2.1,0.8-4.3,1.4-6.5,2c-2.5,0.6-5.2,1.1-8.2,1.4c-3,0.4-6,0.6-8.9,0.6c-5.3,0-10-0.6-14-1.8
	c-3.7-1.1-7.1-3-10-5.7c-2.7-2.7-4.8-5.9-6-9.6c-1.3-3.8-2-8.3-2-13.5c0.1-9,1.6-18,4.6-26.5c1.6-4.5,3.7-8.8,6.3-13
	c2.6-4.1,5.6-7.8,9.2-10.9c3.7-3.2,7.8-5.7,12.3-7.6c5-2,10.4-3,15.8-2.9c5,0,9.2,0.7,12.7,2c3.5,1.3,6.3,2.9,8.6,5
	c2.2,2,3.9,4.3,4.9,6.8s1.5,5,1.5,7.4c0,4.3-1,8.1-2.9,11.5c-1.9,3.4-4.9,6.3-8.9,8.7c-4.1,2.4-9.2,4.2-15.6,5.5
	c-6.3,1.3-13.9,2-22.7,2C131.4,356.7,121.9,356.7,121.9,356.7z M265.9,321.9c-0.7-2.6-1.9-5.1-3.6-7.2c-1.8-2.1-4-3.8-6.5-5
	c-2.7-1.3-6-1.9-10-1.9c-3.6,0-7.1,0.7-10.5,1.9c-3.4,1.3-6.5,2.9-9.2,4.9c-2.7,1.9-5.1,4-7.2,6.5c-2,2.3-3.5,4.6-4.4,6.7l3-15.9
	c0.1-0.4,0-0.8-0.1-1.2c-0.1-0.4-0.5-0.7-0.8-0.9c-0.6-0.3-1.2-0.5-1.9-0.5c-2.1-0.2-4.1-0.2-6.2,0c-0.7,0.1-1.5,0.2-2.2,0.5
	c-0.5,0.2-0.9,0.5-1.2,0.9c-0.3,0.4-0.4,0.8-0.5,1.2l-16.2,83.3c-0.1,0.4-0.1,0.8,0,1.2c0.1,0.3,0.5,0.6,1,0.9
	c0.7,0.3,1.4,0.5,2.2,0.5c0.9,0.1,2.1,0.2,3.6,0.2c1.4,0,2.6,0,3.6-0.2c0.8-0.1,1.6-0.3,2.4-0.5c0.5-0.2,1-0.5,1.4-0.9
	c0.3-0.4,0.5-0.8,0.6-1.2l7.2-37.2c1-5.3,2.6-10.2,4.9-14.8c2.2-4.5,4.8-8.4,7.6-11.7c2.8-3.3,5.9-5.9,9.2-7.8
	c3.3-1.9,6.5-2.8,9.7-2.8c3.6,0,6.2,1.2,7.8,3.5c1.6,2.3,2.3,5.3,2.3,9.1c0,1.4-0.1,2.9-0.2,4.7c-0.2,1.9-0.4,3.7-0.8,5.5l-9.9,51.4
	c-0.1,0.4,0,0.8,0.1,1.2c0.1,0.3,0.5,0.6,1,0.9c0.7,0.3,1.4,0.5,2.2,0.5c0.9,0.1,2.1,0.2,3.5,0.2c1.5,0,2.7,0,3.7-0.2
	c0.8-0.1,1.6-0.3,2.4-0.5c0.5-0.2,1-0.5,1.3-0.9c0.3-0.4,0.5-0.8,0.6-1.2l10.1-52c0.4-2.2,0.7-4.4,1-6.5c0.2-2.1,0.4-4.2,0.4-6.4
	C267,327.5,266.6,324.6,265.9,321.9z M423.8,310.3c-0.4-0.4-1-0.8-1.6-1c-0.8-0.3-1.6-0.5-2.4-0.7c-1-0.2-1.9-0.4-2.9-0.6
	c-3.5-0.6-7-0.1-10.2,1.3c-2.5,1.1-4.8,2.5-6.9,4.2c-2.3,1.8-4.3,3.9-6.1,6.2c-1.9,2.3-3.5,4.8-4.9,7.3l2.9-15.1
	c0.1-0.4,0-0.8-0.1-1.2c-0.2-0.4-0.5-0.7-0.9-0.9c-0.6-0.3-1.2-0.5-1.9-0.5c-2.1-0.2-4.1-0.2-6.2,0c-0.8,0.1-1.5,0.2-2.2,0.5
	c-0.5,0.2-1,0.5-1.3,0.9c-0.3,0.3-0.5,0.8-0.5,1.2l-16,83.3c-0.1,0.4-0.1,0.8,0,1.2c0.1,0.3,0.5,0.6,1,0.9c0.7,0.3,1.4,0.5,2.1,0.6
	c0.9,0.1,2.1,0.2,3.6,0.2c1.4,0,2.6,0,3.6-0.2c0.8-0.1,1.6-0.3,2.4-0.6c0.5-0.2,1-0.5,1.3-0.9c0.3-0.4,0.5-0.8,0.6-1.2l7.1-37.1
	c1.8-9.3,5.9-18.1,11.7-25.6c2.2-2.9,4.9-5.4,7.8-7.5c2.6-1.8,5-2.7,7-2.7c1.9,0,3.8,0.3,5.5,1.1c0.7,0.3,1.3,0.6,1.9,0.8
	c0.5,0.2,1,0.3,1.6,0.3c0.5,0,0.9-0.3,1.3-0.8c0.4-0.5,0.8-1.2,1.1-2.1c0.4-0.8,0.7-1.8,0.9-2.7c0.2-1,0.4-1.9,0.5-2.9l0.3-2.4
	c0.1-0.5,0.1-1,0.1-1.4C424.4,311.3,424.2,310.7,423.8,310.3z M482.9,349c-1,5.1-2.6,10.1-4.9,14.8c-2.2,4.5-4.7,8.5-7.6,11.8
	c-2.6,3.1-5.7,5.8-9.3,7.8c-3.3,1.9-6.6,2.8-9.9,2.8c-2.3,0-4.2-0.5-5.8-1.4c-1.6-0.9-2.9-2.2-3.9-3.7c-1.1-1.8-1.8-3.7-2.1-5.7
	c-0.5-2.4-0.7-4.8-0.7-7.3c0.1-6.6,1-13.2,2.7-19.7c0.9-3.5,2.1-6.9,3.6-10.2c1.5-3.3,3.3-6.3,5.2-8.8c2-2.6,4.3-4.6,6.9-6.2
	c2.6-1.5,5.4-2.3,8.7-2.3c4.1,0,7.7,1.1,11,3.2c3.3,2.1,6.3,5.3,9.1,9.6C485.9,333.7,482.9,349,482.9,349z M569,207.8
	c-2.7,0-2.3-4.1,0.4-4.1c7.7-0.1,15.4-0.3,23.1-0.6c3.2-2.8,6.4-5.5,9.7-8.2c-1.8-1.8-3.6-3.6-5.3-5.5c-13.5-5.6-27.2-10.8-41-15.7
	c-20.6-3.8-41.1-8.2-61.5-13.3c-2.3-0.6-1.4-4.3,0.9-4c20.6,2.6,40.5,7.2,59.9,13c18.4,3.4,36.9,6.4,55.4,9.2c5-0.8,10-1.5,15.1-1.9
	c2.8-2,5.6-4,8.4-6c2.6-6.8,5.2-13.5,7.9-20.2c-21.6-30.8-38.6-63.4-46-100.7c-0.5-2.4,2.8-3.2,3.9-1.2c17.1,29.7,32.8,61,45.5,93.4
	c6.1-15.3,12.4-30.6,18.3-45.9c0.7-1.9,3.6-1.7,4,0.4c0.7,3.7,1.3,7.3,1.8,11c0.2-15.7,0.5-31.5,0.5-47.2c0-2.4,3.8-2.5,4.1-0.2
	c3.3,24.1,6.2,48.3,8.7,72.5l2.5-2.1c6.9-41,15.9-81.6,23.3-121.1c0.4-2.2,3.9-2.7,4.1-0.2c2.4,31.9,4.2,65.3,4.9,98.7
	c0.9-0.5,1.9-1,2.8-1.4c0.9-18.7,2-37.4,3.8-55.9c0.3-16.2,0.4-32.3,0.5-48.5c0-2.7,4.1-2.3,4.1,0.4c0,14.2-0.1,28.5-0.2,42.7
	c0.1,0.3,0.2,0.6,0.2,0.9c0.5,18.8,0.5,37.8,0.2,56.7c1.1-0.4,2.2-0.8,3.3-1.2c1.7-5.5,3.4-11,5.3-16.5c0.8-2.4,4-1.3,4,0.9
	c0,4.4-0.1,8.8-0.1,13.2l0.4-0.1c1.2-24,3-47.9,5.3-71.8c0.2-2.7,4.1-2.2,4.1,0.4c0.1,4,0.2,8.1,0.2,12.1c1,0.8,1,2.7,0,5.7
	c0,3.1,0,6.2,0,9.2c1.3-0.5,3.1,0.3,3,2.1l-0.5,12.4c2.9,1,2.7,4.9-0.5,11.7l0,0.3c4.3-10.9,8.7-21.8,13.2-32.6
	c0.8-1.9,3.6-1.7,4,0.4c2.9,18.1,4,36.6,3.4,55.3v0.7c3.8-0.9,7.6-1.8,11.4-2.6c4-10.8,8.5-21.4,13.4-31.9c1-2.1,4.1-1.5,4,0.9
	c-0.5,15.3-2.7,30.3-5.4,45.1c24.3-22.1,51.9-39.7,83.5-43.7c2.1-0.3,3.2,2.2,1.7,3.6c-35,34.7-65.2,73.3-97,110.5
	c0,0.9,0,2.1,0,3.4c9.5-5.8,19-11.6,26.7-18.9c1.6-1.5,3.9,0.4,3.3,2.3c-3.7,11.8-11.1,20.8-18.6,29.9c14.2,2.2,28.4,4.6,42.6,7.3
	c2.1,0.4,2.7,3.9,0.2,4.1c-7.9,0.8-15.8,1.2-23.8,1.5c16.1,6.6,31.7,13.3,46.7,19.9c0.4,0.2,0.8,0.5,1,1c27.5,6.4,35.7,21,35.8,21.4
	c0.1,0.3,0.2,0.5,0.2,0.8c0,0.6-0.4,1.2-0.9,1.5l-0.1,0.1c-0.2,0.1-0.5,0.2-0.7,0.2c-0.6,0-1.2-0.3-1.5-0.9l0,0v0l-0.4-0.6v0l0,0
	c-0.4-0.6-0.9-1.3-1.4-1.9c-2-2.3-4.2-4.4-6.7-6.2c-5.5-4.1-13.8-8.4-26.7-11c-2.4-0.5-4.7-0.9-7.1-1.2l-0.7-0.1l-0.2,0
	c-0.1,0-0.3-0.1-0.4-0.2c-25-3.7-53.9-9.4-82.3-11.2l0,2.8c12.3,1.9,24.6,3.8,36.9,5.5c2.2,0.3,2.6,3.9,0.2,4.1
	c-7.6,0.7-15.2,1.1-22.8,1.2l7.1,2c2.4,0.7,1.3,4-0.9,4c-6.8,0-13.5-0.2-20.3-0.4l0,13.1c0,1.4-1.6,2.2-2.8,1.8
	c-1.6-0.6-3.2-1.2-4.9-1.8c-2.7,3.3-5.8,6.3-9.2,8.8c-5,23.8-10.3,47.5-15.4,71.2c-0.5,2.5-4.5,2.3-4.1-0.4
	c0.6-3.8,1.1-7.6,1.6-11.3c-1.3-0.9-1-3.2,0.9-6.8c0.8-6.3,1.5-12.6,2.2-18.9l-0.7,1.6c-0.8,1.9-3.6,1.8-4-0.3
	c-1.2-6.8-2.3-13.6-3.2-20.4c-0.8,6.7-1.5,13.5-2.3,20.2c-0.3,2.7-4.1,2.2-4.1-0.4c-0.2-7.1-0.4-14.1-0.5-21.2
	c-6.4,1.4-12.9,2.2-19.5,2.4c-2.5,8.2-5.5,16.3-8.8,24.3c0.4,5.6,0.7,11.1,0.8,16.7c0,0.3-0.1,0.7-0.2,1c0.6,9.3,0.7,18.7,0.2,28.1
	c-0.1,2.1-3.1,2.5-3.9,0.7c-3.3-7.1-6.4-14.3-9.2-21.7c0,0,0,0.1-0.1,0.2c-1,1.7-3.3,0.7-3.7-0.8c-2.2-8.4-4-17-5.5-25.6
	c-1.2,2.5-2.4,5.1-3.4,7.7c-0.9,2.2-4.1,1.4-4-0.9c0.2-4.3,0.4-8.6,0.6-12.9c-15.3,15.6-30.8,31.1-45.1,47c-1.8,2-4.7,0-3.4-2.4
	c12.8-24,27.6-48,44.7-69.9c-1.5-0.8-3-1.6-4.4-2.6l-0.9-0.6c-0.8,0-1.5,0-2.3,0l-1.5,2.8c-1.3,2.4-4.6-0.1-3.4-2.4
	c0.7-1.4,1.4-2.7,2.1-4.1c-1.9-1.5-3.8-3.1-5.6-4.8c-17.4,2.1-34.9,3.5-52.4,4.8c-2.2,0.1-3.6-3-1.2-3.9c4-1.6,8.1-3.4,12.4-5.2
	l0.8-3.9c-5.2,1-10.5,2-15.6,2.9l-5.5,2.6c-1.2,0.6-2.3-0.1-2.8-1.1c-17.8,3.1-34.7,5.7-49.3,8.6c-1.7,0.3-3.2-1.8-2.1-3.2
	c2.1-2.7,4.2-5.4,6.4-8c-13.2,4-26.4,7.8-39.7,11.2c-2.1,0.5-3.2-2.4-1.7-3.7c19.2-16.2,40.4-26.1,62.9-31.8
	c8.1-8.5,16.6-16.8,25.4-24.7c-2.9,0.5-4.4-0.1-4.5-1.6L569,207.8L569,207.8z M308,345.6c6.3,0,11.5-0.4,15.7-1.2
	c4.2-0.8,7.6-1.9,10.1-3.3c2.5-1.4,4.3-3,5.4-4.9c1-1.9,1.6-3.8,1.6-5.8c0.1-3-1.3-5.8-3.6-7.6c-2.4-1.9-5.8-2.9-10.2-2.9
	c-3.9,0-7.3,0.7-10.3,2.1c-3,1.4-5.6,3.3-7.9,5.6c-2.4,2.4-4.3,5.2-5.9,8.2c-1.7,3.1-3,6.4-4,9.9C298.8,345.6,308,345.6,308,345.6z
	 M133.6,345.6c6.3,0,11.5-0.4,15.7-1.2c4.2-0.8,7.6-1.9,10.1-3.3c2.5-1.4,4.3-3,5.4-4.9c1-1.9,1.6-3.8,1.6-5.8
	c0.1-3-1.3-5.8-3.6-7.6c-2.4-1.9-5.8-2.9-10.2-2.9c-3.9,0-7.3,0.7-10.3,2.1c-3,1.4-5.6,3.3-7.9,5.6c-2.4,2.4-4.4,5.2-5.9,8.2
	c-1.7,3.1-3,6.4-4,9.9C124.5,345.6,133.6,345.6,133.6,345.6z M686.1,329.7c2.1-3.8,4-7.6,5.9-11.5c0.8,8.2,1.3,16.5,1.3,24.9
	C693.4,351.2,688.1,335.9,686.1,329.7z M667.9,295.5c-14.1,14.5-28.5,28.7-42.2,43.5c10.4-11.2,20.3-25.8,30.6-40.8
	c-0.8,1.8-1.5,3.5-2.1,5c-1,2.3,2.2,3.6,3.7,1.9c3.5-4.1,6.8-8.3,10.1-12.5C668,292.6,667.9,295.5,667.9,295.5z M682.5,319.1
	c-1.9-5.7-3.5-11.4-5-17.2l1.1-2c0.4,2.7,0.8,5.4,1.3,8.1c0.3,1.9,2.7,2.2,3.7,0.8c2.1-2.7,4.1-5.4,6.1-8.1c0.5,3.5,1,7,1.5,10.5
	C688.3,317.1,685.2,321,682.5,319.1z M669.9,299.4l2.1-2.1l1,3.5C669.5,307,669.2,304.5,669.9,299.4z M695.4,301
	c-0.2-2.3-0.4-4.6-0.7-6.9c1.7-2.3,3.5-4.7,5.2-7C698.8,290.6,697.2,295.8,695.4,301z M687.2,286.4c0.5,2.6,1,5.3,1.5,7.9
	c-3.2,3.6-5.9,6.1-6.2,4.3c-0.2-1.4-0.5-2.9-0.7-4.3C683.5,291.7,685.3,289,687.2,286.4z M675.8,293.4l1.7-1.8l0.1,0.8
	c-0.6,0.9-1.1,1.8-1.6,2.7C676,295,675.8,293.4,675.8,293.4z M668.2,285.7l-1.7,2.2c-8.6,11.6-6.1,6-2.2-1.7l3.7-5.3l0.2,1.2
	L668.2,285.7z M744.6,294l0-0.4l0.7-6.1c0.7-2.1,1.4-4.2,2.1-6.4L744.6,294z M740.7,290.1c-1.7,3.9-3.4,5.7-4.3,0.6
	c-0.7-3.7-1.3-7.5-1.8-11.2c2.6-0.9,5.1-1.9,7.5-3.1l0.1,0L740.7,290.1z M726.3,291.3c0.3-2.9,0.6-6.1,0.8-9.4l0.3-0.1L726.3,291.3z
	 M693.9,288l-0.4-3.4c0.8,0.1,1.7,0.1,2.5,0.2l0,0.6C695.3,286.2,694.7,287.1,693.9,288z M674.7,283.7l1.7-2.3l0,0
	c0.2,1.6,0.3,3.1,0.5,4.7l-1.7,1.8C675,286.6,674.8,285.2,674.7,283.7z M696.9,274.4c-0.2,1.9-0.3,3.9-0.5,5.8
	c-1.2-0.1-2.4-0.1-3.6-0.3l-0.1-0.6C694.1,277.7,695.5,276,696.9,274.4z M719.9,278.4c-4.5,1-9,1.6-13.6,1.8l1-3.6
	c5.2-7.3,10.2-14.7,15.1-22.2l1.5-0.9c0.1,7.8,0.2,15.7,0.4,23.5C722.8,277.6,721.4,278,719.9,278.4z M683.8,271
	c0.5,2.1,1,4.2,1.5,6.3l-1.2,1.3c-1.3-0.3-2.6-0.6-3.9-0.9l-0.1-1.4C681.4,274.5,682.6,272.8,683.8,271z M702.8,276l-1.2,1.7
	l1.8-10.1l1.8-1.8C704.5,269.1,703.7,272.5,702.8,276z M674.1,275.8l-0.2-2.8l0.6-0.9l1.1-0.2c0.1,1.1,0.2,2.1,0.2,3.2l-0.7,1
	L674.1,275.8L674.1,275.8z M728.1,275.5l-0.7,0.3c0.3-6.7,0.4-14,0.5-21.4c0.4,4,0.8,8.1,1.2,12.1L728.1,275.5z M733.1,269l1.7-14.5
	c0.4-0.3,0.6-0.8,0.7-1.3l0.5-3.4c2,0.8,4,1.6,6,2.4l-0.8,17.2c-2.6,1.4-5.2,2.6-7.6,3.7C733.4,271.8,733.3,270.4,733.1,269z
	 M691.4,270.7l-0.4-2.3c1.1-0.3,2.3-0.7,3.4-1.1C694.4,267.3,691.4,270.7,691.4,270.7z M46.2,268.3H5.3c-2.1,0-6.4-2.3-5-10.7
	L40.1,88.5h35.5c2.4,0,6.1,0.3,7.9,1.2c2.9,1.3,3.5,6.7,3.8,8.7c0.3,2.1,0,8.2,0,8.2s5.9-11.9,9.1-14.9c3.4-3.2,8.4-3.2,8.4-3.2
	h49.3L148,112c-1.5,4.6-2,5.9-3.9,8.1c-2.3,2.7-5.6,4.4-9.2,4.5H97.6c-6.1,0-10.8,1.2-13.9,3.6c-2.1,1.1-5.5,5.1-6.4,9.7
	C76.3,142.5,46.3,267.8,46.2,268.3L46.2,268.3z M291.5,108.1c-4.7-9.8-9.7-12.7-13.8-14.5c-4.2-1.8-20.4-5.1-49.9-5.1
	c-29.5,0-43.3,2-54.9,8.4c-11.3,6.2-18,17.6-27.6,43.4c-9.6,25.8-14.4,51.2-14.4,76.2l0.8,14.3l2.2,12.1c2.8,8,6.2,13.7,10.3,17.1
	c4.1,3.4,8.8,5.6,14,6.7c5.2,1.1,11.3,1.7,18.4,1.7h68.1c12.7,0,18-12.6,18.4-14l6.7-27.3H197c-18.6,0-21.6-6.1-20.7-13.4
	c0.9-7.3,4.3-29.4,4.3-29.4h92.5c9.1,0,11.7-1.5,13.7-5.9c2.8-7.2,7.1-45.4,7.1-45.4C294.6,125.3,295.8,117.1,291.5,108.1z
	 M366.8,268.3h-32.9c-4.2,0-24.7-0.7-33.2-20.1c-3.2-9.6-3.6-16.5-3.6-23.8c0-20.1,5.3-44.4,15.9-72.8
	c10.6-28.5,20.7-44.6,29.3-50.3c16.7-11.1,39-9.5,39-9.5h54.6l11.4-46.6h29.4c2.8,0,5.4,1.1,7.6,3.2c2.4,2.1,3.5,5.1,3.5,8.8
	l-54.6,211h-34.7c-1.7,0-3.4-0.6-4.7-1.7c-1.3-1.2-3.7-5.2-2.8-9.1l5.3-20l-15.1,23.3C381.2,260.8,375.8,268.3,366.8,268.3z
	 M661.2,266.3c0.7-1.2,1.6-2.5,2.6-3.8l0.8-0.1c0.3,1.9,0.7,3.9,1,5.8C662.5,268.2,660.4,267.7,661.2,266.3z M624.6,263.1
	c-5.5,0.5-28.8,6.8-18.4,2.1c0.6,0.7,1.6,0.9,2.5,0.6c6.8-3.2,13.5-6.6,20.2-10.1c3-1.2,6-2.4,9-3.7c1.6,3.1,3.8,6.2,6.4,9.1
	C637.7,261.9,631.2,262.5,624.6,263.1z M679.5,266.7l-0.1-1l2.4-3l0.1,0.6l0.6,2.2l-0.5,0.8L679.5,266.7z M747.8,265.8l-0.3,0.2
	l0.2-1.6l2.1-9l0.5,0.2C749.5,259,748.7,262.4,747.8,265.8z M714.8,258.7c-1.5,2.2-3.1,4.5-4.6,6.7c0.4-1.6,0.7-3.3,1.1-4.9
	C712.5,259.9,713.7,259.3,714.8,258.7z M655.6,265.2c-0.5-0.4-0.9-0.8-1.4-1.2l1.5-0.2c0.1,0.2,0.2,0.4,0.4,0.5
	C656,264.2,655.6,265.2,655.6,265.2z M743.5,264c-0.5,1.3,0-1.9,0.8-6.8L743.5,264z M584.4,251.1c-2,0.7-1.3,3.4,0.4,3.9l-0.2,0.6
	c-4.6,0.9-9.2,1.8-13.7,2.7c-6.7,1.3-13.5,2.6-20.2,3.8c-10.7,2-14.4,5.3-5.3-5.7l0.2-0.3c15.1-4.8,30.1-9.9,45-15.5
	c-1.5,3.2-2.9,6.5-4.1,9.7C586.5,250.4,584.4,251.1,584.4,251.1z M691.2,263.4l0.4-3.7l2.2-3.2c1.5-0.4,3-0.8,4.6-1.2l-0.4,5.5
	C695.7,261.7,693.5,262.6,691.2,263.4z M527.4,257.5c-29,8.8-19.9,3.3,1.4-8.3c8.6-4.7,17.7-8.2,27.1-10.8
	c-4.3,4.7-8.5,9.4-12.6,14.2C538,254.2,532.7,255.9,527.4,257.5z M755.8,260.6l0.6-2.8l2,0.8C757.6,259.3,756.7,260,755.8,260.6z
	 M656.9,259.6c-2.1,0.3-4.2,0.6-6.2,0.8c-2.9-3.1-5.3-6.6-7.4-10.3l-0.1-0.2c6.2-2.4,12.4-4.7,18.7-6.9c0.3,2.4,0.6,4.8,0.9,7.1
	c-1,2.2-2,4.4-3.1,6.5C658.7,257.6,657.8,258.6,656.9,259.6z M623.8,253.1l-8.9,3.8c-0.6-0.4-1-0.9-1.2-1.6
	C617.1,254.6,620.4,253.9,623.8,253.1z M594.6,253.6l-4,0.8l0.1-0.2c1.4-0.3,2.9-0.5,4.3-0.8C594.9,253.4,594.6,253.6,594.6,253.6z
	 M757.5,252.5l1.1-5.7c2.1,0.1,4.1,0.2,6.2,0.3C763.5,250.1,760.7,252.2,757.5,252.5z M751,252.2l-0.5-0.1l1.3-5.6l0.3,0
	C751.7,248.4,751.4,250.3,751,252.2z M696.8,252l1.9-2.8l-0.2,2.4C698,251.7,697.4,251.9,696.8,252z M731.1,250.8l-0.2-2l0.5-0.3
	C731.4,248.5,731.1,250.8,731.1,250.8z M693.2,249.6l-0.7,1l0-0.3C692.6,250.3,693.2,249.6,693.2,249.6z M563,236.5
	c10.5-2.3,21.2-3.9,32-4.6c-0.5,1-1,1.9-1.5,2.9c-5.5,2.1-11,4.2-16.5,6.3c-8.7,3.2-17.5,6.2-26.4,9.1
	C554.6,245.6,558.7,241,563,236.5z M742.1,249.3c-1.9-0.8-3.8-1.7-5.7-2.6l0.2-1.4c1.9,0.2,3.7,0.3,5.6,0.5L742.1,249.3z
	 M593.2,248.1c1.4-3.1,3.1-6.7,4.9-10.3c5.1-2,10.3-4,15.4-6c-1,3.7-2,7.4-3,11.1C604.7,244.5,598.9,246.3,593.2,248.1z M772,243.2
	l0.2-0.9c4.2,0.8,8.4,1.2,12.5,1.3C780.5,243.5,776.2,243.4,772,243.2z M766.1,243l-6.7-0.4l0.2-1.2c2,0.1,4,0.2,6,0.2
	c0.2,0.2,0.4,0.5,0.6,0.8L766.1,243z M752.9,242.1L752.9,242.1l0.2-1L752.9,242.1z M623.5,239.6c-2.9,0.7-5.8,1.4-8.7,2.2
	c0.9-3.5,1.8-7.1,2.8-10.6c5,0,10,0,15,0.1l0.9,0c-0.1,1.1-0.1,2.2-0.1,3.3l-2.1,1.1C628.7,237,626.1,238.3,623.5,239.6z
	 M742.5,241.3l-1.9-0.2l1-0.9l1,0.1L742.5,241.3z M770.9,237.8l2.5,0.1c3.8,0,36,3.1,21.4,0.9c-8-1.2-15.9-2.4-23.9-3.7L770.9,237.8
	z M852.7,236.6c-10.9-4.7-21.8-9.3-32.8-13.7c-5.1-2-10.3-4-15.4-5.9c-5.7,0.1-11.5,0.1-17.2,0.1c-1,1.5-1.9,3-2.8,4.5
	c-1.2,2-3.7,0.4-3.8-1.4c0-1.1,0-2.1,0-3.2c-3.3-0.1-6.7-0.1-10-0.2l0.1,8.3c23.8,1.3,47.2,5,66.7,7.9c3.2,0.5,11.4,3,15.1,4
	C852.6,236.8,852.6,236.7,852.7,236.6z M766.7,236.8l-1.1-0.3c-1.5-0.8-3-1.5-4.6-2.2l0.1-0.7l5.6,0.9l0,1.4L766.7,236.8z
	 M649.8,231.9l1.1,0.1l-1.4,2.5c-2.5,0.4-4.9,0.8-7.4,1.2C644.7,234.5,647.2,233.2,649.8,231.9z M637.6,231.6l0.1,0.8l1.9-1l-2-0.1
	C637.5,231.4,637.6,231.6,637.6,231.6z M593.4,207.8H608c0.3,0.6,0.8,1.2,1.4,1.6c-2.7,3.7-5.2,7.4-7.6,11.1
	c-3.5,0.4-6.9,0.8-10.4,1.3c-2.4,0.3-2.1,3.8,0.2,4.1l6.4,0.8l-0.7,1.3c-10.2,0.8-20.3,2.2-30.2,4.4
	C575.4,223.8,584.3,215.6,593.4,207.8z M602,231.5l-0.9,0.3l0.2-0.3L602,231.5z M766.7,227.9l0,2.4c-1.6-0.3-3.2-0.5-4.8-0.8
	l0.3-1.8C763.7,227.7,765.2,227.8,766.7,227.9z M426.4,128.7h-38.2c-5.6,0-10.5,1.4-14.7,4.3c-4.2,2.9-8.5,9.1-13,18.6L349.1,181
	c-3.7,10.3-12.8,34.5,5.3,44.8c5.2,2.6,11.3,3.9,18.5,3.9c0,0,16.3,0.6,26.2-5.3L426.4,128.7z M604.5,227.5l-1.2,0.1l0.1-0.2
	C603.4,227.4,604.5,227.5,604.5,227.5z M637.5,226.5c0.1-1.4,0.2-2.9,0.5-4.3c1.6,0,3.1,0,4.7,0.1c2.6,1.2,5.2,2.4,7.9,3.5l-2.7,1.4
	C644.4,227,640.9,226.8,637.5,226.5z M628.1,225.8c2.2-0.9,4.4-1.9,6.7-2.9c-0.3,1.1-0.5,2.2-0.7,3.4
	C632.1,226.2,630.1,226,628.1,225.8z M665,226c-0.1,0-0.2-0.1-0.3-0.1l-0.1-1.5l0.2-0.1L665,226z M763.2,222.1
	c0.5-0.3,0.9-0.7,1.1-1.3l2.3-1.5l0,5.5l-3.9-0.1C762.7,224.7,763.2,222.1,763.2,222.1z M616,222.9c-0.2,0.5-0.3,1.1-0.5,1.6
	c-3.4-0.3-6.7-0.5-10.1-0.4l0.1-0.1C609,223.6,612.5,223.2,616,222.9z M620,222.7c1.4-0.1,2.7-0.2,4.1-0.2c-1.5,0.6-3.1,1.3-4.6,1.9
	C619.5,224.4,620,222.7,620,222.7z M656.3,222.7L656.3,222.7c0,0-0.1,0.1-0.1,0.1c-0.1,0-0.2-0.1-0.2-0.1L656.3,222.7z M743.4,220.3
	l0-1.1l-0.3,0.5l0.1,0.4C743.3,220,743.4,220.3,743.4,220.3z M619.5,211.8c-0.8,2.4-1.5,4.9-2.3,7.3c-3,0.2-6,0.4-8.9,0.7
	c2-2.9,4-5.8,6-8.7C615.7,211.5,617.5,211.7,619.5,211.8z M623.4,212.1l0.3,0l0.4,0c3.3,2.1,6.7,4.1,10.1,6l-0.9,0.4
	c-4.1,0.1-8.1,0.2-12.2,0.4C621.9,216.6,622.7,214.4,623.4,212.1z M646,218.5l-0.5-0.2l5.5-2.5c2.9,0.4,5.7,0.8,8.5,1.2l0,0.4
	l-0.9,1.5C654.4,218.7,650.2,218.5,646,218.5z M640.7,212.7c1.3,0,2.6,0,3.8,0c0,0.3,0,0.6,0.1,0.9l-4.6,2.1l-0.4-0.2
	C639.9,214.5,640.3,213.6,640.7,212.7z M634,212.5c1.5,0,3,0.1,4.5,0.1l-0.8,1.8C636.5,213.8,635.2,213.2,634,212.5z M795.2,213.5
	h-5.5l1.2-1.6C790.8,211.9,795.2,213.5,795.2,213.5z M780.6,210.2l0,3.2l-4.8-0.1L780.6,210.2z M803,208.6c-0.8-0.1,28,3.1,23.4,3.5
	c-6.1,0.6-12.3,0.9-18.4,1.1c-4.7-1.9-9.3-3.7-14-5.5l0.4-0.5C797.3,207.7,800.2,208.2,803,208.6z M764.7,213.1l0.4-2.5l1.4-1.5
	l0.1,4.1C766.5,213.2,764.7,213.1,764.7,213.1z M784.6,212.8c0.6-0.8,1.2-1.7,1.9-2.5l-1-0.4C785.4,211,785.1,211.9,784.6,212.8
	L784.6,212.8L784.6,212.8z M770.4,206.1l1.1-0.3l1.2-0.3l5.2,1.8c-1.4,0.9-3,1.9-4.7,3l-2.6,1.7C770.5,210,770.5,208,770.4,206.1z
	 M640.5,208.7c-3.5-0.2-6.9-0.5-10-1h7l3.2,0.7L640.5,208.7z M748.9,203.6c1.1-0.5,2.1-1.1,3.2-1.6l0.2-0.8l-3.5-0.5l-0.3,0.6
	l-0.1,2.3C748.3,203.6,748.9,203.6,748.9,203.6z M791.9,202.8l1.9-1.3l-1.2,1.4C792.5,202.9,791.9,202.8,791.9,202.8z M605.5,197.8
	c0.1,0.1,0.3,0.2,0.4,0.4c-0.2,0.9,0.1,1.8,1.3,2.2l0.5,0.1c-0.1,0.6-0.2,1.2-0.3,1.8l-7.9,0.4C601.4,201.1,603.4,199.4,605.5,197.8
	z M622.4,200.5l0.2-0.3l0.7,0.3l-0.1,0.2C622.9,200.6,622.7,200.5,622.4,200.5z M651.5,189.9c0.7,0.2,1.4,0.3,2.1,0.5
	c-2.9,3.3-5.6,6.7-8.1,10.2l-2.1,0.1C633.1,192.2,628.3,184.5,651.5,189.9z M655.5,190.9c0.7,0.2,1.4,0.4,2,0.6l1.2,4.1
	c0,1.5,0.1,3,0.1,4.5c-3.8,0.1-7.5,0.2-11.3,0.3C649.9,197.1,652.6,193.9,655.5,190.9z M778.7,200l2.4-1.6l-0.1,1.1
	C781.1,199.4,778.7,200,778.7,200z M634.7,199.7l-6.1-2.7l1-2.8C631.3,196.2,633,198,634.7,199.7z M616,197.3l2,0.8l-0.6,0.7
	C616.6,198.4,616.1,197.9,616,197.3z M811.9,177.7l0.5-0.4c-3,2.4-6,4.6-9.2,6.7c-5.7,3.7-11.5,7.4-17.2,11.1l0,3.1
	c2.7-0.6,5.5-1.3,8.2-1.9c1.1-0.2,2.1,0.6,2.4,1.7C801.3,191.7,806.6,182.1,811.9,177.7z M770.2,197.9c-0.2-5.7-0.4-11.4-0.7-17.1
	c0.8-6,1.4-12.1,2-18.1l1.1-4.3c5.5-4.9,11-9.8,16.5-14.7c-2.5,13-4.8,25.8-6.5,38.8C778.6,187.6,774.4,192.7,770.2,197.9z
	 M763.1,196.8l0.8-3.6l-0.6,3.7C763.3,196.9,763.2,196.8,763.1,196.8z M608.9,195.2c0,0.1,0,0.2-0.1,0.3l-0.2,0.1l-0.1-0.1
	L608.9,195.2z M674.8,191.4l2.3,0.3l-0.1,0.8c-0.5,0.7-1.1,1.3-1.6,2L674.8,191.4z M682.3,192.5l0.1-0.1l1.3,0.2l0.1,1.7
	L682.3,192.5z M779.7,194.1l2-2.3l-0.1,1.1L779.7,194.1z M621.5,194l-1.7-0.7c1.2-0.7,2.5-1.3,4-2C623.8,191.2,621.5,194,621.5,194z
	 M753.7,193.8l-1.2-0.4c0.8-1.5,1.5-3.1,2.2-4.6C754.4,190.5,754,192.1,753.7,193.8z M749.2,183.6c3.3-2.7,4.3-1.7,0.7,6.3
	c-0.4,0.8-0.7,1.6-1.1,2.4l0,0C748.8,192.3,749.2,183.6,749.2,183.6z M628.1,185.2c-0.4,0.1-0.9,0.2-1.3,0.3
	c-0.8,0.2-1.5,0.8-1.6,1.6c-3.2,1.3-6.4,2.8-9.5,4.4l-1.4-0.6c2.9-2.2,5.8-4.3,8.7-6.4L628.1,185.2z M691.8,184.5
	c-0.3,1-0.6,2.1-0.9,3.2l-1.2,1.4l-1.9-0.3l-0.2-2.8c0.5-0.5,1.2-1.2,2-2C689.6,184.1,691.8,184.5,691.8,184.5z M609.3,182.5
	l7.2,1.1c-2.3,1.8-4.6,3.6-6.9,5.4c-1.9-0.8-3.7-1.5-5.6-2.3C604.5,184.8,606.5,183.5,609.3,182.5z M735,187.9
	c-0.1,0.1-0.1,0.3-0.2,0.4c-2.2-0.6-4.3-1.1-6.5-1.7l0-2.3c1.2-1,2.5-1.9,3.7-2.9l2.4,0.2c0.4,0,0.7,0.1,1,0.2
	C735.2,183.8,735.1,185.9,735,187.9z M678.1,182.4c-0.2,1.7-0.4,3.3-0.5,4.9c-1.3-1.4-2.5-2.8-3.8-4.2l0-1.2
	C675.3,182,676.7,182.2,678.1,182.4z M682.5,183c0.2,0,0.4,0.1,0.6,0.1l0.1,1.9l-1.1,1.3C682.1,186.3,682.5,183,682.5,183z
	 M654.8,182.4l0.7,2.3l-7.2-1C650.4,183.2,652.6,182.8,654.8,182.4z M594.6,181.8c-0.4,0.1-0.8,0.3-1.1,0.7
	c-3.8-1.5-7.7-2.9-11.5-4.3c5.6,0.9,11.1,1.8,16.7,2.7C597.3,181.2,595.9,181.5,594.6,181.8z M647.2,180.1c-3,0.7-5.9,1.4-8.8,2.3
	l-0.6-0.1c0.7-0.8,1.5-1.6,2.2-2.5C642.5,179.9,645,180,647.2,180.1z M629.5,179.9l1.2,0l-0.5,1.4l-2.2-0.3
	C627.9,181,629.5,179.9,629.5,179.9z M749.4,178.5c3.2-2.8,6.5-5.6,9.7-8.3l-0.2,0.8c-0.4,0-0.8,0.2-1.1,0.4
	c-2.9,2.4-5.7,4.9-8.4,7.5L749.4,178.5z M739.7,174.8l0.3-0.3l-0.4,3.3l-0.1,0C739.6,177.9,739.7,174.8,739.7,174.8z M843.1,89.6
	c12.2-7.2,43.5-23.1,19.6,1.1c-20.8,21.1-40.4,43.3-59.2,66.1c-5.6,6.8-11.1,13.6-16.6,20.4c1.5-12.5,3.9-24.9,6.3-37.2
	c8.7-7.8,17.5-15.5,26.4-23.1c1.8-1.6,3.5-3,5-4.4c7.7-5.9,15.3-11.8,22.9-18c2.1-1.7-0.6-4.8-2.7-3.2c-6.7,5.2-13.3,10.4-19.8,15.8
	c-1.5,1.1-3.2,2.4-5.2,3.9c-8,6.1-16.2,12-24.5,17.7l0.7-3.5c0.5-0.4,0.9-0.9,1.3-1.3C811.3,110.8,826.6,99.3,843.1,89.6z
	 M728.2,176.3l2-1.2l-2,1.7V176.3z M678.9,175.9c-1.7,0.1-3.3,0.2-5,0.3l0-0.8c1.8-1.3,3.7-2.6,5.6-3.8
	C679.4,171.5,678.9,175.9,678.9,175.9z M711.5,167.7c-0.7,2.9-1.4,5.7-2.2,8.1c-1,0-1.9-0.1-2.9-0.1l0-1.6
	C708.2,172,709.9,169.9,711.5,167.7z M637.1,174.7c1.7-1.2,3.4-2.3,5.1-3.4c-1.5,1.5-2.9,3-4.4,4.5l-1.2,0.1L637.1,174.7z
	 M658.8,172.1l-0.1,3.7l-1.2-0.1c-0.9-2.9-1.8-5.7-2.8-8.6C656.1,168.8,657.5,170.5,658.8,172.1z M644,175.6
	c2.1-2.3,4.3-4.5,6.5-6.7c0.7,2.2,1.5,4.5,2.2,6.7C649.8,175.6,646.9,175.6,644,175.6z M691.8,175.5c-1.6,0-3.3,0-4.9,0.1
	c-0.2-2.8-0.4-5.6-0.6-8.3c6.2-3.4,8.3-0.5,7.8,5.9C693.3,173.9,692.5,174.7,691.8,175.5z M749.7,172.8c3.4-3,7.6-6.7,8-7.2
	c1.3-1.5,2.6-2.9,3.8-4.4l-0.5,1.8c-3.8,3.3-7.5,6.6-11.4,9.9C749.7,172.9,749.7,172.8,749.7,172.8z M681.2,157.8
	c-0.4,3.1-0.9,6.2-1.3,9.4c-2,1.4-4.1,2.9-6.1,4.5c0-6.5-0.1-13-0.4-19.5c2.3-1.3,4.6-2.6,6.9-3.8
	C680.7,151.5,681,154.6,681.2,157.8z M728.3,163.9c1.7-5.5,3.5-10.9,5.4-16.4c1.1-0.7,2.1-1.3,3.1-1.7l-0.5,12.8
	c-0.1,2.7-0.2,5.4-0.4,8.2c-2.6,1.5-5.1,3-7.7,4.5C728.2,171.2,728.3,163.9,728.3,163.9z M706.7,168.7l0-0.3l0.8-0.7L706.7,168.7z
	 M750,165.3c1.6-1.6,3.2-3.2,4.8-4.8l3.5-2.1c-2.8,3.3-5.6,6.7-8.3,10C749.9,168.3,750,165.3,750,165.3z M645,154.4l0.8,1.1
	c0.7,2,1.5,4,2.2,6c-2.6,1.7-5.1,3.4-7.7,5.1C641.8,162.4,643.4,158.4,645,154.4z M656.8,162.6l1.7-1.6h0c0,1.3,0,2.6,0.1,3.9
	C658.6,164.9,656.8,162.6,656.8,162.6z M740.9,144.3c0,6.5,0,13,0,19.5c-0.2,0.1-0.5,0.3-0.7,0.4
	C740.5,157.6,740.7,150.9,740.9,144.3z M687.8,144.4c4-2.1,8-4.1,12-6.1l-1.8,18c-0.3,0-0.6,0.1-0.9,0.2c-3.8,2-7.6,4.2-11.2,6.6
	l-0.3-3.9C686.3,154.3,687,149.4,687.8,144.4z M659.9,117.3c-0.5,5.8-0.9,11.5-1.2,17.3c-0.8,0.2-1.4,0.7-1.4,1.7
	c0.2,5.6,0.5,11.3,1,16.9v1.6c-1.7,1.1-3.4,2.1-5.1,3.2l-3-4c-0.8-2.2-1.6-4.4-2.4-6.5C651.8,137.4,655.9,127.4,659.9,117.3z
	 M711,157.5c0.6-1.1,1.2-2.2,1.8-3.3l0,1.8L711,157.5z M763.7,143.1c-4.1,4.9-8.6,9.6-13.3,14.1l1.8-41.4c5.7-2.1,11-4.2,15.5-5.5
	C766.1,121.2,764.7,132.1,763.7,143.1z M712.9,146.2c-2,3.2-3.9,6.5-5.7,9.8l0.7-21.6c1.7-0.8,3.4-1.6,5-2.3
	C712.9,136.8,712.9,141.5,712.9,146.2z M251.2,155.4c0-0.1,7.2-22.2-5.6-31.2c-9.8-6.9-24.5-4.5-29.1-3.5c-4,0.9-22.8,6.5-29.2,34.7
	H251.2z M728.4,150.9l0.1-0.1c0,0.1-0.1,0.3-0.1,0.4L728.4,150.9z M789,138.2c-4.8,4.3-9.7,8.6-14.5,12.9l1.1-3.9
	C780.2,144.2,784.6,141.2,789,138.2z M703,150.1l0.1-3.3l-0.3,2.4L703,150.1z M666.1,147.9L666.1,147.9c-0.5-2.7-1-5.3-1.4-8
	c-0.1-0.7-0.5-1.2-1.2-1.5c0-5-0.3-10-1-14.9C663.8,131.6,665,139.8,666.1,147.9z M718.2,145.1l0.8-1.3v0.1c-0.3,0.5-0.5,1-0.8,1.5
	V145.1z M728.5,143.8c1.7-2.7,3.4-5.3,5.1-8.1l-2.4,7.1c-0.9,0.6-1.8,1.1-2.7,1.7C728.5,144.6,728.5,143.8,728.5,143.8z
	 M679.8,142.4l-3.4,1.9l0.9-0.8c0.8-0.7,1.6-1.4,2.4-2.1L679.8,142.4z M679.1,134.8l0.1,0.9c-2,1.8-4.1,3.7-6,5.5l0.4-21.1
	c0.3-15-0.3-37.3-1.6-47.3C674.7,93.4,677,114.1,679.1,134.8z M664,107c0.6-1.6,4.6,24,4.7,24.8c0.2,2,0.4,3.9,0.5,5.9l0,2.9
	c-1.4-9.9-2.9-19.8-4.5-29.7c-0.1-0.8-0.7-1.4-1.5-1.6C663.5,108.4,663.8,107.7,664,107z M684.3,137.5l-0.4,2.8l0,0l-0.2-2.2
	C683.6,138.1,684.3,137.5,684.3,137.5z M736.9,139.4l-0.7,0.4l0.8-2.2L736.9,139.4z M773.5,137.3l1-1.4l-1.1,3.7L773.5,137.3z
	 M625.9,117.7c-10.8-18.3-18.2-38-23.6-58.5c1.5,5.6,12.2,24.4,17.2,34.3c7.4,15,14.2,30.3,20.2,45.8
	C634.9,132.3,630.3,125.1,625.9,117.7z M728.8,130.5l1.5-6.1c2.4-1,4.8-2,7.1-2.9l0,1c-2.7,5.3-5.6,10.4-8.8,15.5L728.8,130.5z
	 M718.2,129.7l1.5-0.6l-0.3,6.9l-1.1,1.7C718.2,135,718.2,132.4,718.2,129.7z M689.6,133.2c3.8-3,7.7-5.9,11.6-8.7l-0.8,7.4
	c-3.9,1.9-7.8,3.8-11.6,5.7C688.9,137.6,689.6,133.2,689.6,133.2z M785.7,135.4c2-2.1,4.1-4.1,6.2-6.1l-0.4,2.2
	C789.6,132.8,787.6,134.1,785.7,135.4z M790.1,104.6c0.2-0.6,0.1-1.3-0.3-1.9c3.4-8.4,8.8-20.7,8.8-20.1c-0.4,12.6-2.6,25.2-5,37.6
	c-4.9,4.7-9.7,9.5-14.4,14.4c1.6-5.3,3.2-10.5,4.9-15.7C786.4,114.3,788.4,109.5,790.1,104.6z M774.3,108.6c8.1-1.2,10.1,3-0.4,20.3
	C774.1,122.2,774.3,115.4,774.3,108.6z M712.9,126.1c-1.6,0.7-3.2,1.4-4.8,2.1l0.3-8.7c1.5-1,3-2,4.5-2.9
	C712.8,119.8,712.9,123,712.9,126.1z M706,46.3c2.6-13.5,2.6-43.4,4.6-11.4c1.6,25.1,1.9,50.2,2.2,75.2v0.3
	c-1.4,0.8-2.8,1.7-4.2,2.6c0.1-3.1,0.2-6.3,0.4-9.4c2.1-4.7,2.2-7.6,0.3-8.6c0.2-4.2,0.3-8.5,0.5-12.7c0.1-2.7-3.9-3.1-4.1-0.4
	c-1.2,11.8-2.4,23.7-3.6,35.5c-3.8,2.6-7.5,5.4-11.1,8.3C695.6,99,701,72.4,706,46.3z M720.4,112l-0.5,11.1l-1.8,0.7
	c0-3.5-0.1-6.9-0.2-10.4C718,113.5,720.4,112,720.4,112z M734.9,107.4l0.9-3.2c0.7-0.3,1.4-0.5,2.1-0.7c-0.1,1.9-0.2,4.2-0.2,6.7
	c0,2-0.1,4-0.1,6c-1.9,0.7-3.8,1.4-5.6,2.1C732.8,114.6,733.8,111,734.9,107.4z M729.2,107.2c0.6-0.3,1.3-0.6,1.9-0.9
	c-0.7,2.4-1.4,4.8-2,7.2C729.1,113.4,729.2,107.2,729.2,107.2z M768.3,106.4c-5.3,1.4-10.6,3-15.9,4.7l0.8-17.3
	c4.2-10.8,8.5-21.5,12.8-32.2c5.9-14.6,4.3,30.6,4,23c0.1,3.9,0.1,7.9,0,11.8l0,0C769.4,99.7,768.9,103.1,768.3,106.4z M741.8,102.8
	c0.1,0,0.2,0,0.2,0l-0.3,7.4C741.7,107.8,741.7,105.3,741.8,102.8z M738.1,99.9c-0.4,0.1-0.7,0.2-1.1,0.3
	C738.2,95.9,738.3,96.6,738.1,99.9z M747.3,81.1l-0.3,8.6c-0.1,2.9-0.3,5.8-0.4,8.7l-0.2,0C746.6,92.7,746.9,86.9,747.3,81.1z
	 M511.6,65.5H509V47.7h5l3.7,11.5l3.7-11.5h5v17.8h-3.3V49.9l-4.9,15.6h-1.7l-4.9-15.6C511.6,49.9,511.6,65.5,511.6,65.5z M506,50.4
	h-4.7v15.1h-3.5V50.4h-4.7v-2.7H506C506,47.7,506,50.4,506,50.4z"/>
</svg>
